<svg xmlns="http://www.w3.org/2000/svg" xmlns:xlink="http://www.w3.org/1999/xlink" width="232" height="313" viewBox="0 0 232 313"><defs><clipPath id="clip-path"><rect id="Rectangle_38" width="232" height="313" fill="#f7f7f7" data-name="Rectangle 38" rx="3" transform="translate(713 1409)"/></clipPath><linearGradient id="linear-gradient" x1=".106" x2="1.105" y1=".501" y2=".501" gradientUnits="objectBoundingBox"><stop offset="0" stop-color="#c3bae9"/><stop offset=".024" stop-color="#b8aee6"/><stop offset=".184" stop-color="#ada2e2"/><stop offset="1" stop-color="#7b67d0"/></linearGradient><linearGradient id="linear-gradient-4" x1="1" x2="0" y1=".56" y2=".5" xlink:href="#linear-gradient"/><linearGradient id="linear-gradient-5" x1=".887" x2="-.08" y1=".5" y2=".5" gradientUnits="objectBoundingBox"><stop offset="0" stop-color="#c3bae9"/><stop offset=".068" stop-color="#b8aee6"/><stop offset=".184" stop-color="#ada2e2"/><stop offset="1" stop-color="#7b67d0"/></linearGradient></defs><g id="Mask_Group_2" clip-path="url(#clip-path)" data-name="Mask Group 2" transform="translate(-713 -1409)"><g id="car" transform="translate(715 1409)"><g id="car-2" data-name="car"><rect id="Rectangle_6" width="42.16" height="21.73" fill="#d5d3d0" data-name="Rectangle 6" rx="10.76" transform="translate(417.6 150.84)"/><path id="Path_227" fill="#505b65" d="M449,173.08H428.36a11.27,11.27,0,0,1-11.26-11.26v-.22a11.27,11.27,0,0,1,11.26-11.26H449a11.27,11.27,0,0,1,11.26,11.26v.22A11.27,11.27,0,0,1,449,173.08Zm-20.64-21.73A10.27,10.27,0,0,0,418.1,161.6v.22a10.27,10.27,0,0,0,10.26,10.26H449a10.27,10.27,0,0,0,10.26-10.26v-.22A10.27,10.27,0,0,0,449,151.34Z" data-name="Path 227"/><circle id="Ellipse_6" cx="3.69" cy="3.69" r="3.69" fill="#f7f2ed" data-name="Ellipse 6" transform="translate(421.85 161.02)"/><path id="Path_228" fill="#505b65" d="M425.54,168.9a4.19,4.19,0,1,1,4.19-4.19A4.19,4.19,0,0,1,425.54,168.9Zm0-7.38a3.19,3.19,0,1,0,3.19,3.19,3.19,3.19,0,0,0-3.19-3.19Z" data-name="Path 228"/><path id="Path_229" fill="#505b65" d="M410.1,187.44a2,2,0,0,1-1.6-3.19l15.43-20.73a2,2,0,0,1,3.21,2.39l-15.43,20.73A2,2,0,0,1,410.1,187.44Z" data-name="Path 229"/><rect id="Rectangle_7" width="42.16" height="21.73" fill="#d5d3d0" data-name="Rectangle 7" rx="10.76" transform="matrix(0.966, 0.259, -0.259, 0.966, 4.032, 145.014)"/><path id="Path_230" fill="#505b65" d="M31.9,172.34H11.26A11.27,11.27,0,0,1,0,161.08v-.22A11.27,11.27,0,0,1,11.26,149.6H31.9a11.27,11.27,0,0,1,11.26,11.26v.22A11.27,11.27,0,0,1,31.9,172.34ZM11.26,150.6A10.27,10.27,0,0,0,1,160.86v.22a10.27,10.27,0,0,0,10.26,10.26H31.9a10.27,10.27,0,0,0,10.26-10.26v-.22A10.27,10.27,0,0,0,31.9,150.6Z" data-name="Path 230" transform="matrix(0.966, 0.259, -0.259, 0.966, 42.397, -0.1)"/><circle id="Ellipse_7" cx="3.69" cy="3.69" r="3.69" fill="#f7f2ed" data-name="Ellipse 7" transform="translate(31.03 160.28)"/><path id="Path_231" fill="#505b65" d="M34.72,168.16a4.19,4.19,0,1,1,4.2-4.16,4.19,4.19,0,0,1-4.2,4.16Zm0-7.38a3.2,3.2,0,1,0,2.27.944,3.19,3.19,0,0,0-2.27-.944Z" data-name="Path 231"/><path id="Path_232" fill="#505b65" d="M50.16,186.7a2,2,0,0,1-1.61-.81L33.12,165.17a2,2,0,1,1,3.21-2.39l15.43,20.73a2,2,0,0,1-1.6,3.19Z" data-name="Path 232"/><path id="Path_233" fill="url(#linear-gradient)" d="M417.81,182.95H42.45L80.54,15.2A18.88,18.88,0,0,1,99,.5H361.31a18.88,18.88,0,0,1,18.41,14.7Z" data-name="Path 233"/><path id="Path_234" fill="#505b65" d="M418.43,183.45H41.83L80.06,15.09A19.28,19.28,0,0,1,99,0H361.31a19.28,19.28,0,0,1,18.9,15.09Zm-375.35-1h374.1l-38-167.14A18.28,18.28,0,0,0,361.31,1H99A18.28,18.28,0,0,0,81,15.31Z" data-name="Path 234"/><path id="Path_235" fill="#d5d3d0" d="M406,173.51H54.27L89.75,17.29A9.38,9.38,0,0,1,99,9.94H361.31a9.39,9.39,0,0,1,9.2,7.35Z" data-name="Path 235"/><path id="Path_236" fill="#505b65" d="M406.61,174h-353L89.26,17.18A9.88,9.88,0,0,1,99,9.44H361.31A9.88,9.88,0,0,1,371,17.18ZM54.9,173H405.36L370,17.4a8.89,8.89,0,0,0-8.71-7H99a8.88,8.88,0,0,0-8.71,7Z" data-name="Path 236"/><path id="Path_237" fill="#f7f2ed" d="M116.9,105.8a10,10,0,0,1-9.75-12.21L121.58,30a10,10,0,0,1,9.75-7.79H328.92A10,10,0,0,1,338.68,30l14.43,63.57a10,10,0,0,1-9.75,12.21Z" data-name="Path 237"/><path id="Path_238" fill="url(#linear-gradient)" d="M437.78,244.26V192.39a18.88,18.88,0,0,0-18.88-18.88H41.35a18.88,18.88,0,0,0-18.88,18.88v51.87Z" data-name="Path 238"/><path id="Path_239" fill="#505b65" d="M438.28,244.76H22V192.39A19.4,19.4,0,0,1,41.35,173H418.91a19.4,19.4,0,0,1,19.38,19.38ZM23,243.76H437.28V192.39A18.4,18.4,0,0,0,418.91,174H41.35A18.4,18.4,0,0,0,23,192.39Z" data-name="Path 239"/><path id="Path_240" fill="url(#linear-gradient)" d="M347.8,205.56H112.46A20,20,0,0,1,92.75,189l-2.68-15.47H370.19L367.51,189a20,20,0,0,1-19.71,16.56Z" data-name="Path 240"/><path id="Path_241" fill="#505b65" d="M347.8,206.06H112.46a20.46,20.46,0,0,1-20.2-17L89.47,173H370.79L368,189.06a20.46,20.46,0,0,1-20.2,17ZM90.66,174l2.58,14.88a19.46,19.46,0,0,0,19.21,16.17H347.8A19.46,19.46,0,0,0,367,188.89L369.6,174Z" data-name="Path 241"/><path id="Path_242" fill="#d5d3d0" d="M432.78,268.07H27.48a5,5,0,0,1-5-5V243.79h415.3v19.28A5,5,0,0,1,432.78,268.07Z" data-name="Path 242"/><path id="Path_243" fill="#505b65" d="M432.78,268.57H27.48a5.51,5.51,0,0,1-5.5-5.5V243.29h416.3v19.78a5.51,5.51,0,0,1-5.5,5.5ZM23,244.29v18.78a4.5,4.5,0,0,0,4.5,4.5H432.78a4.5,4.5,0,0,0,4.5-4.5V244.29Z" data-name="Path 243"/><rect id="Rectangle_8" width="49.08" height="44.39" fill="#a6a9ab" data-name="Rectangle 8" transform="translate(36.16 268.54)"/><path id="Path_244" fill="#505b65" d="M85.74,313.43H35.66V268H85.74Zm-49.08-1H84.74V269H36.66Z" data-name="Path 244"/><rect id="Rectangle_9" width="49.08" height="44.39" fill="#a6a9ab" data-name="Rectangle 9" transform="translate(375.02 268.54)"/><path id="Path_245" fill="#505b65" d="M424.6,313.43H374.52V268H424.6Zm-49.08-1H423.6V269H375.52Z" data-name="Path 245"/><rect id="Rectangle_10" width="111.14" height="29" fill="#f7f2ed" data-name="Rectangle 10" rx="5" transform="translate(174.56 241.43)"/><path id="Path_246" fill="#505b65" d="M280.7,270.93H179.56a5.51,5.51,0,0,1-5.5-5.5v-19a5.51,5.51,0,0,1,5.5-5.5H280.7a5.51,5.51,0,0,1,5.5,5.5v19a5.51,5.51,0,0,1-5.5,5.5Zm-101.14-29a4.5,4.5,0,0,0-4.5,4.5v19a4.5,4.5,0,0,0,4.5,4.5H280.7a4.5,4.5,0,0,0,4.5-4.5v-19a4.5,4.5,0,0,0-4.5-4.5Z" data-name="Path 246"/><rect id="Rectangle_11" width="65.13" height="35.4" fill="#f4a110" data-name="Rectangle 11" rx="17.52" transform="translate(368.16 179.51)"/><path id="Path_247" fill="#505b65" d="M415.76,215.4H385.68a18,18,0,0,1-18-18V197a18,18,0,0,1,18-18h30.09a18,18,0,0,1,18,18v.35a18,18,0,0,1-18.01,18.05ZM385.68,180a17,17,0,0,0-17,17v.35a17,17,0,0,0,17,17h30.09a17,17,0,0,0,17-17V197a17,17,0,0,0-17-17Z" data-name="Path 247"/><rect id="Rectangle_12" width="35.87" height="16.05" fill="#f7f2ed" data-name="Rectangle 12" rx="5" transform="translate(382.79 219.41)"/><path id="Path_248" fill="#505b65" d="M413.65,236H387.79a5.51,5.51,0,0,1-5.5-5.5v-6a5.51,5.51,0,0,1,5.5-5.5h25.87a5.51,5.51,0,0,1,5.5,5.5v6A5.51,5.51,0,0,1,413.65,236Zm-25.87-16a4.5,4.5,0,0,0-4.5,4.5v6a4.5,4.5,0,0,0,4.5,4.5h25.87a4.5,4.5,0,0,0,4.5-4.5v-6a4.5,4.5,0,0,0-4.5-4.5Z" data-name="Path 248"/><rect id="Rectangle_13" width="29.87" height="10.05" fill="#f4a110" data-name="Rectangle 13" rx="2" transform="translate(385.79 222.41)"/><path id="Path_249" fill="#505b65" d="M413.65,233H387.79a2.5,2.5,0,0,1-2.5-2.5v-6a2.5,2.5,0,0,1,2.5-2.5h25.87a2.5,2.5,0,0,1,2.5,2.5v6a2.5,2.5,0,0,1-2.51,2.5Zm-25.87-10a1.5,1.5,0,0,0-1.5,1.5v6a1.5,1.5,0,0,0,1.5,1.5h25.87a1.5,1.5,0,0,0,1.5-1.5v-6a1.5,1.5,0,0,0-1.5-1.5Z" data-name="Path 249"/><circle id="Ellipse_8" cx="12.6" cy="12.6" r="12.6" fill="#f7f2ed" data-name="Ellipse 8" transform="translate(372.88 184.6)"/><path id="Path_250" fill="#505b65" d="M385.48,210.31a13.1,13.1,0,1,1,13.1-13.1A13.1,13.1,0,0,1,385.48,210.31Zm0-25.21a12.1,12.1,0,1,0,12.1,12.1A12.1,12.1,0,0,0,385.48,185.1Z" data-name="Path 250"/><path id="Path_251" fill="#f7f2ed" d="M385.48,206.81a9.6,9.6,0,1,1,9.6-9.6,9.6,9.6,0,0,1-9.6,9.6Z" data-name="Path 251"/><path id="Path_252" fill="#505b65" d="M385.48,207.31a10.1,10.1,0,1,1,10.1-10.1,10.1,10.1,0,0,1-10.1,10.1Zm0-19.21a9.1,9.1,0,1,0,9.1,9.1,9.1,9.1,0,0,0-9.1-9.1Z" data-name="Path 252"/><circle id="Ellipse_9" cx="12.6" cy="12.6" r="12.6" fill="#f7f2ed" data-name="Ellipse 9" transform="translate(403.36 184.6)"/><path id="Path_253" fill="#505b65" d="M416,210.31a13.1,13.1,0,1,1,13.1-13.1A13.1,13.1,0,0,1,416,210.31Zm0-25.21a12.1,12.1,0,1,0,12.1,12.1A12.1,12.1,0,0,0,416,185.1Z" data-name="Path 253"/><path id="Path_254" fill="#f7f2ed" d="M416,206.81a9.6,9.6,0,1,1,9.6-9.6,9.6,9.6,0,0,1-9.6,9.6Z" data-name="Path 254"/><path id="Path_255" fill="#505b65" d="M416,207.31a10.1,10.1,0,1,1,10.1-10.1,10.1,10.1,0,0,1-10.1,10.1Zm0-19.21a9.1,9.1,0,1,0,9.1,9.1,9.1,9.1,0,0,0-9.1-9.1Z" data-name="Path 255"/><rect id="Rectangle_14" width="65.13" height="35.4" fill="url(#linear-gradient-4)" data-name="Rectangle 14" rx="17.52" transform="translate(26.97 179.51)"/><path id="Path_256" fill="#505b65" d="M74.58,215.4H44.5a18,18,0,0,1-18-18V197a18,18,0,0,1,18-18H74.58a18,18,0,0,1,18,18v.35a18,18,0,0,1-18,18.05ZM44.5,180a17,17,0,0,0-17,17v.35a17,17,0,0,0,17,17H74.58a17,17,0,0,0,17-17V197a17,17,0,0,0-17-17Z" data-name="Path 256"/><rect id="Rectangle_15" width="35.87" height="16.05" fill="#f7f2ed" data-name="Rectangle 15" rx="5" transform="translate(41.61 219.41)"/><path id="Path_257" fill="#505b65" d="M72.47,236H46.6a5.51,5.51,0,0,1-5.5-5.5v-6a5.51,5.51,0,0,1,5.5-5.5H72.47a5.51,5.51,0,0,1,5.5,5.5v6a5.51,5.51,0,0,1-5.5,5.5ZM46.6,220a4.5,4.5,0,0,0-4.5,4.5v6a4.5,4.5,0,0,0,4.5,4.5H72.47a4.5,4.5,0,0,0,4.5-4.5v-6a4.5,4.5,0,0,0-4.5-4.5Z" data-name="Path 257"/><rect id="Rectangle_16" width="29.87" height="10.05" fill="url(#linear-gradient-5)" data-name="Rectangle 16" rx="2" transform="translate(44.6 222.41)"/><path id="Path_258" fill="#505b65" d="M72.47,233H46.6a2.5,2.5,0,0,1-2.5-2.5v-6a2.5,2.5,0,0,1,2.5-2.5H72.47a2.5,2.5,0,0,1,2.5,2.5v6a2.5,2.5,0,0,1-2.5,2.5ZM46.6,223a1.5,1.5,0,0,0-1.5,1.5v6a1.5,1.5,0,0,0,1.5,1.5H72.47a1.5,1.5,0,0,0,1.5-1.5v-6a1.5,1.5,0,0,0-1.5-1.5Z" data-name="Path 258"/><circle id="Ellipse_10" cx="12.6" cy="12.6" r="12.6" fill="#f7f2ed" data-name="Ellipse 10" transform="translate(31.7 184.6)"/><path id="Path_259" fill="#505b65" d="M44.3,210.31a13.1,13.1,0,1,1,13.1-13.1A13.1,13.1,0,0,1,44.3,210.31Zm0-25.21a12.1,12.1,0,1,0,12.1,12.1A12.1,12.1,0,0,0,44.3,185.1Z" data-name="Path 259"/><path id="Path_260" fill="#f7f2ed" d="M44.3,206.81a9.6,9.6,0,1,1,9.6-9.6,9.6,9.6,0,0,1-9.6,9.6Z" data-name="Path 260"/><path id="Path_261" fill="#505b65" d="M44.3,207.31a10.1,10.1,0,1,1,10.1-10.1,10.1,10.1,0,0,1-10.1,10.1Zm0-19.21a9.1,9.1,0,1,0,9.1,9.1,9.1,9.1,0,0,0-9.1-9.1Z" data-name="Path 261"/><circle id="Ellipse_11" cx="12.6" cy="12.6" r="12.6" fill="#f7f2ed" data-name="Ellipse 11" transform="translate(62.18 184.6)"/><path id="Path_262" fill="#505b65" d="M74.78,210.31a13.1,13.1,0,1,1,13.1-13.1A13.1,13.1,0,0,1,74.78,210.31Zm0-25.21a12.1,12.1,0,1,0,12.1,12.1A12.1,12.1,0,0,0,74.78,185.1Z" data-name="Path 262"/><path id="Path_263" fill="#f7f2ed" d="M74.78,206.81a9.6,9.6,0,1,1,9.6-9.6A9.6,9.6,0,0,1,74.78,206.81Z" data-name="Path 263"/><path id="Path_264" fill="#505b65" d="M74.78,207.31a10.1,10.1,0,1,1,10.1-10.1,10.1,10.1,0,0,1-10.1,10.1Zm0-19.21a9.1,9.1,0,1,0,9.1,9.1,9.1,9.1,0,0,0-9.1-9.1Z" data-name="Path 264"/><rect id="Rectangle_17" width="180.28" height="33.27" fill="#f7f2ed" data-name="Rectangle 17" rx="16.47" transform="translate(139.99 207.68)"/><path id="Path_265" fill="#505b65" d="M303.8,241.46H156.46a17,17,0,0,1-17-17v-.33a17,17,0,0,1,17-17H303.8a17,17,0,0,1,17,17v.33a17,17,0,0,1-17,17ZM156.46,208.18a16,16,0,0,0-16,16v.33a16,16,0,0,0,16,16H303.8a16,16,0,0,0,16-16v-.33a16,16,0,0,0-16-16Z" data-name="Path 265"/><rect id="Rectangle_18" width="174.28" height="27.27" fill="#a6a9ab" data-name="Rectangle 18" rx="13.47" transform="translate(142.99 210.68)"/><path id="Path_266" fill="#505b65" d="M303.8,238.46H156.46a14,14,0,0,1-14-14v-.33a14,14,0,0,1,14-14H303.8a14,14,0,0,1,14,14v.33a14,14,0,0,1-14,14ZM156.46,211.18a13,13,0,0,0-13,13v.33a13,13,0,0,0,13,13H303.8a13,13,0,0,0,13-13v-.33a13,13,0,0,0-13-13Z" data-name="Path 266"/><rect id="Rectangle_19" width="49.08" height="7.99" fill="#505b65" data-name="Rectangle 19" transform="translate(36.16 268.54)"/><rect id="Rectangle_20" width="49.08" height="7.99" fill="#505b65" data-name="Rectangle 20" transform="translate(375.02 268.54)"/><path id="Path_267" fill="#f7f2ed" d="M114.07,177.28H102.43a.5.5,0,0,1,0-1h11.64a.5.5,0,0,1,0,1Z" data-name="Path 267"/><path id="Path_268" fill="#f7f2ed" d="M122.17,177.28h-3.83a.5.5,0,0,1,0-1h3.83a.5.5,0,0,1,0,1Z" data-name="Path 268"/><path id="Path_269" fill="#f7f2ed" d="M357.82,177.28H341.18a.5.5,0,0,1,0-1h16.64a.5.5,0,0,1,0,1Z" data-name="Path 269"/></g><g id="chair"><path id="Path_270" fill="#a6a9ab" d="M191.41,173.51H90.5l6.82-71.2a11.58,11.58,0,0,1,11.48-10h64.31a11.56,11.56,0,0,1,11.47,10Z" data-name="Path 270"/><rect id="Rectangle_21" width="68.45" height="33.5" fill="#a6a9ab" data-name="Rectangle 21" rx="11.57" transform="translate(106.73 42.02)"/><rect id="Rectangle_22" width="4.48" height="16.75" fill="#a6a9ab" data-name="Rectangle 22" transform="translate(118.33 75.51)"/><path id="Path_271" fill="#505b65" d="M123.32,92.76h-5.48V75h5.48Zm-4.48-1h3.48V76h-3.48Z" data-name="Path 271"/><rect id="Rectangle_23" width="4.48" height="16.75" fill="#a6a9ab" data-name="Rectangle 23" transform="translate(159.1 75.51)"/><path id="Path_272" fill="#505b65" d="M164.08,92.76H158.6V75h5.48Zm-4.48-1h3.48V76H159.6Z" data-name="Path 272"/><path id="Path_273" fill="#888b8c" d="M104.62,147.44l-1.17,12.22h75.01l-1.17-12.22Z" data-name="Path 273"/><path id="Path_274" fill="#888b8c" d="M179.85,174.19l-1.17-12.22H103.23l-1.17,12.22Z" data-name="Path 274"/><path id="Path_275" fill="#888b8c" d="M174.28,116.05l-.67-7a5.79,5.79,0,0,0-5.76-5.23H114.06a5.79,5.79,0,0,0-5.76,5.23l-.67,7Z" data-name="Path 275"/><path id="Path_276" fill="#888b8c" d="M107.41,118.37l-1.17,12.22h69.43l-1.17-12.22Z" data-name="Path 276"/><path id="Path_277" fill="#888b8c" d="M106.02,132.9l-1.17,12.22h72.22L175.9,132.9Z" data-name="Path 277"/><path id="Path_278" fill="#a6a9ab" d="M363.63,173.51H262.72l6.82-71.2a11.58,11.58,0,0,1,11.48-10h64.31a11.56,11.56,0,0,1,11.47,10Z" data-name="Path 278"/><rect id="Rectangle_24" width="68.45" height="33.5" fill="#a6a9ab" data-name="Rectangle 24" rx="11.57" transform="translate(278.95 42.02)"/><rect id="Rectangle_25" width="4.48" height="16.75" fill="#a6a9ab" data-name="Rectangle 25" transform="translate(290.55 75.51)"/><path id="Path_279" fill="#505b65" d="M295.53,92.76h-5.48V75h5.48Zm-4.48-1h3.48V76h-3.48Z" data-name="Path 279"/><rect id="Rectangle_26" width="4.48" height="16.75" fill="#a6a9ab" data-name="Rectangle 26" transform="translate(331.32 75.51)"/><path id="Path_280" fill="#505b65" d="M336.3,92.76h-5.48V75h5.48Zm-4.48-1h3.48V76h-3.48Z" data-name="Path 280"/><path id="Path_281" fill="#888b8c" d="M276.84,147.44l-1.17,12.22h75.01l-1.17-12.22Z" data-name="Path 281"/><path id="Path_282" fill="#888b8c" d="M352.07,174.19l-1.17-12.22H275.45l-1.17,12.22Z" data-name="Path 282"/><path id="Path_283" fill="#888b8c" d="M346.5,116.05l-.67-7a5.79,5.79,0,0,0-5.76-5.23H286.28a5.79,5.79,0,0,0-5.76,5.23l-.67,7Z" data-name="Path 283"/><path id="Path_284" fill="#888b8c" d="M279.63,118.37l-1.17,12.22h69.43l-1.17-12.22Z" data-name="Path 284"/><path id="Path_285" fill="#888b8c" d="M278.24,132.9l-1.18,12.22h72.23l-1.18-12.22Z" data-name="Path 285"/></g><g id="girl"><path id="Path_286" fill="#505b65" d="M170.19,81a30.77,30.77,0,1,0-58.47,0c7.56,23.27,7.56,25.74,0,49a30.77,30.77,0,1,0,58.47,0C162.63,106.76,162.63,104.3,170.19,81Z" data-name="Path 286"/><path id="Path_287" fill="#505b65" d="M141,170.91a31.27,31.27,0,0,1-29.71-41c7.54-23.21,7.54-25.49,0-48.7a31.27,31.27,0,1,1,59.42,0c-7.54,23.21-7.54,25.49,0,48.7a31.27,31.27,0,0,1-29.71,41Zm0-129.76a30.27,30.27,0,0,0-28.76,39.72c7.56,23.28,7.56,26,0,49.32a30.27,30.27,0,1,0,57.52,0c-7.56-23.28-7.56-26,0-49.32A30.27,30.27,0,0,0,141,41.15Z" data-name="Path 287"/><path id="Path_288" fill="#505b65" d="M171.73,71.45H110.18V54.79a30.46,30.46,0,0,1,30.46-30.46h.62a30.46,30.46,0,0,1,30.46,30.46Z" data-name="Path 288"/><path id="Path_289" fill="#505b65" d="M172.23,71.95H109.68V54.79a31,31,0,0,1,31-31h.62a31,31,0,0,1,31,31Zm-61.54-1h60.54V54.79a30,30,0,0,0-30-30h-.62a30,30,0,0,0-30,30Z" data-name="Path 289"/><path id="Path_290" fill="#d5d3d0" d="M107.9,172.18V147a32.78,32.78,0,0,1,32.74-32.74h.62A32.78,32.78,0,0,1,174,147v25.16Z" data-name="Path 290"/><path id="Path_291" fill="#505b65" d="M174.51,172.68H107.4V147a33.28,33.28,0,0,1,33.24-33.24h.62A33.28,33.28,0,0,1,174.51,147Zm-66.11-1h65.11V147a32.28,32.28,0,0,0-32.24-32.24h-.62A32.28,32.28,0,0,0,108.4,147Z" data-name="Path 291"/><path id="Path_292" fill="#f7f2ed" d="M170.08,71.75V55.66a29.2,29.2,0,0,0-29.2-29.2h-.59a29.2,29.2,0,0,0-29.2,29.2V71.81a5.66,5.66,0,0,0,.74,11.27h.09A29.21,29.21,0,0,0,122.8,99.55a18.55,18.55,0,0,1,7.26,14.88v6.68a10.43,10.43,0,0,0,10.43,10.43h.21a10.43,10.43,0,0,0,10.43-10.43v-6.65a18.59,18.59,0,0,1,7.27-14.91A29.21,29.21,0,0,0,169.28,83a5.66,5.66,0,1,0,.81-11.26Z" data-name="Path 292"/><path id="Path_293" fill="#505b65" d="M140.69,132h-.21a10.94,10.94,0,0,1-10.93-10.93v-6.68a18.1,18.1,0,0,0-7.06-14.48,29.77,29.77,0,0,1-11-16.38,6.15,6.15,0,0,1-.93-12.18V55.66A29.73,29.73,0,0,1,140.29,26h.59a29.73,29.73,0,0,1,29.7,29.7V71.27a6.16,6.16,0,0,1-.5,12.3h-.43a29.77,29.77,0,0,1-11,16.38,18.14,18.14,0,0,0-7.07,14.51v6.65A10.94,10.94,0,0,1,140.69,132Zm-.4-105a28.73,28.73,0,0,0-28.7,28.7V72.24l-.44.06a5.16,5.16,0,0,0,.67,10.28h.39l.18.38a28.76,28.76,0,0,0,10.69,16.19,19.1,19.1,0,0,1,7.46,15.28v6.68a9.94,9.94,0,0,0,9.93,9.93h.21a9.94,9.94,0,0,0,9.93-9.93v-6.65a19.15,19.15,0,0,1,7.47-15.31,28.76,28.76,0,0,0,10.7-16.24l.11-.44.45.06a5.08,5.08,0,0,0,.74.06,5.16,5.16,0,0,0,0-10.32h-.5V55.66A28.73,28.73,0,0,0,140.88,27Z" data-name="Path 293"/><path id="Path_294" fill="#a6a9ab" d="M111.73,74.12a3.37,3.37,0,0,0,0,6.72Z" data-name="Path 294"/><path id="Path_295" fill="#a6a9ab" d="M170.17,80.84a3.37,3.37,0,0,0,0-6.72Z" data-name="Path 295"/><circle id="Ellipse_12" cx="1.73" cy="1.73" r="1.73" fill="#505b65" data-name="Ellipse 12" transform="translate(129.99 66.84)"/><circle id="Ellipse_13" cx="1.73" cy="1.73" r="1.73" fill="#505b65" data-name="Ellipse 13" transform="translate(148.46 66.84)"/><circle id="Ellipse_14" cx="3.38" cy="3.38" r="3.38" fill="#a6a9ab" data-name="Ellipse 14" transform="translate(121.43 74.37)"/><circle id="Ellipse_15" cx="3.38" cy="3.38" r="3.38" fill="#a6a9ab" data-name="Ellipse 15" transform="translate(153.72 74.37)"/><path id="Path_296" fill="#505b65" d="M140.88,25.84h-.59A29.2,29.2,0,0,0,111.54,50V70.48a.62.62,0,0,0,1,.51c3.56-2.6,2.25-5.58,6.69-8.12,4.8-2.74,6.73.52,11.52-2.23s2.87-6,7.66-8.75,6.72.52,11.52-2.23,2.87-6,7.66-8.75c3.53-2,5.52-.79,8.24-1.11a29.18,29.18,0,0,0-24.95-13.96Z" data-name="Path 296"/><path id="Path_297" fill="#505b65" d="M112.16,71.61A1.13,1.13,0,0,1,111,70.48V50a29.64,29.64,0,0,1,29.26-24.65h.59A29.52,29.52,0,0,1,166.2,39.57l.41.67-.78.09a9.149,9.149,0,0,1-1.05.06h0a10.834,10.834,0,0,1-1.51-.07,10.06,10.06,0,0,0-1.44-.07,7.6,7.6,0,0,0-4,1.13,8,8,0,0,0-3.63,4.15,8.92,8.92,0,0,1-4,4.59,8.59,8.59,0,0,1-4.51,1.25,10.066,10.066,0,0,1-1.54-.08,9.358,9.358,0,0,0-1.46-.07,7.54,7.54,0,0,0-4,1.12A8,8,0,0,0,135,56.49a8.93,8.93,0,0,1-4,4.59,8.59,8.59,0,0,1-4.51,1.26,10.066,10.066,0,0,1-1.54-.08,9.358,9.358,0,0,0-1.46-.07,7.55,7.55,0,0,0-4,1.12,8,8,0,0,0-3.63,4.16,9.1,9.1,0,0,1-3,3.93,1.09,1.09,0,0,1-.7.21Zm28.13-45.27A28.63,28.63,0,0,0,112,50.08v20.4a.12.12,0,0,0,.18.1,8.16,8.16,0,0,0,2.7-3.56,8.94,8.94,0,0,1,4-4.59,8.59,8.59,0,0,1,4.51-1.26,10.065,10.065,0,0,1,1.54.08,9.358,9.358,0,0,0,1.46.07,7.55,7.55,0,0,0,4-1.12,8,8,0,0,0,3.63-4.15,8.92,8.92,0,0,1,4-4.59,8.58,8.58,0,0,1,4.51-1.26,10.065,10.065,0,0,1,1.54.08,9.358,9.358,0,0,0,1.46.07,7.54,7.54,0,0,0,4-1.12,8,8,0,0,0,3.63-4.15,8.92,8.92,0,0,1,4-4.59,8.64,8.64,0,0,1,4.54-1.26,10.834,10.834,0,0,1,1.51.07,10.06,10.06,0,0,0,1.44.07h.12a28.52,28.52,0,0,0-24-13Z" data-name="Path 297"/><path id="Path_298" fill="#505b65" d="M159.83,37.25s-2.35,16.17,11.1,18.5C170.94,55.75,172.31,38.71,159.83,37.25Z" data-name="Path 298"/><path id="Path_299" fill="#505b65" d="M171.39,56.33l-.54-.09c-13.77-2.38-11.54-18.9-11.51-19.07l.07-.48.48.06c12.8,1.5,11.56,18.86,11.55,19ZM160.27,37.81c-.27,2.68-.9,15,10.2,17.34C170.55,52.29,170.38,39.4,160.27,37.81Z" data-name="Path 299"/><path id="Path_300" fill="#505b65" d="M141,93.19a7.11,7.11,0,0,1-6.54-4.34.5.5,0,0,1,.92-.39,6.106,6.106,0,0,0,11.25,0,.5.5,0,0,1,.92.39A7.1,7.1,0,0,1,141,93.19Z" data-name="Path 300"/><path id="Path_301" fill="#505b65" d="M140.17,82.34h-.36a.5.5,0,0,1,0-1h.36a4.49,4.49,0,0,0,4.49-4.49V66.39a5.49,5.49,0,0,1,5.48-5.49.52.52,0,0,1,.52.5.48.48,0,0,1-.47.5h-.05a4.49,4.49,0,0,0-4.48,4.49V76.86a5.49,5.49,0,0,1-5.49,5.48Z" data-name="Path 301"/><path id="Path_302" fill="#f7f2ed" d="M130.05,116.05l10.64,15.48s-9.87,3.25-13.75-2.75C123.66,123.69,130.05,116.05,130.05,116.05Z" data-name="Path 302"/><path id="Path_303" fill="#505b65" d="M134.92,132.91c-3.86,0-6.76-1.33-8.39-3.86-3.45-5.34,2.87-13,3.14-13.32l.42-.5,11.39,16.57-.63.21A21,21,0,0,1,134.92,132.91Zm-4.89-16c-1.32,1.77-5.23,7.62-2.66,11.61,1.46,2.26,4,3.4,7.55,3.4a20.409,20.409,0,0,0,5-.67Z" data-name="Path 303"/><path id="Path_304" fill="#f7f2ed" d="M151.34,116.05,140.7,131.53s9.87,3.25,13.75-2.75C157.73,123.69,151.34,116.05,151.34,116.05Z" data-name="Path 304"/><path id="Path_305" fill="#505b65" d="M146.47,132.91h0a21,21,0,0,1-5.94-.9l-.63-.21,11.39-16.57.42.5c.27.32,6.59,8,3.14,13.32C153.23,131.58,150.33,132.91,146.47,132.91Zm-5-1.67a20.48,20.48,0,0,0,5,.67h0c3.55,0,6.09-1.14,7.55-3.4,2.57-4-1.34-9.84-2.66-11.61Z" data-name="Path 305"/><rect id="Rectangle_27" width="66.11" height="2.35" fill="#505b65" data-name="Rectangle 27" transform="translate(107.9 151.2)"/><path id="Path_306" fill="#505b65" d="M143.7,144.78a3.48,3.48,0,0,1-3.5-3.47v-9.78a.5.5,0,1,1,1,0v9.78a2.48,2.48,0,0,0,2.47,2.47.51.51,0,0,1,.52.5.49.49,0,0,1-.49.5Z" data-name="Path 306"/><path id="Path_307" fill="#505b65" d="M174,156.7H107.9a.5.5,0,0,1,0-1H174a.5.5,0,0,1,0,1Z" data-name="Path 307"/><path id="Path_308" fill="#d5d3d0" d="M163,149.41l11.78,16.53h0a7.77,7.77,0,1,0,12.65-9h0l-16-22.46Z" data-name="Path 308"/><path id="Path_309" fill="#505b65" d="M181.07,169.7a8.2,8.2,0,0,1-6.44-3.1h0l-.28-.38L162.57,149.7l.81-.58,11.78,16.52A7.27,7.27,0,1,0,187,157.21l-.29-.41h0L171,134.74l.81-.58L188.11,157h0a8.26,8.26,0,0,1-6.36,12.63Z" data-name="Path 309"/><path id="Path_310" fill="#d5d3d0" d="M123.52,144.47c-2.64,11.73-2.82,12.55-5.44,24.28-.1.42-.2.86-.3,1.31h0a7.65,7.65,0,0,1-1.77,3.45H104.38a7.57,7.57,0,0,1-1.93-4.76,7,7,0,0,1,.17-2.09h0c2.88-12.85,3.33-14.53,6-26.27Z" data-name="Path 310"/><path id="Path_311" fill="#505b65" d="M116.22,174H104.16l-.15-.17a8.11,8.11,0,0,1-2.06-5.07,7.34,7.34,0,0,1,.07-1.61h0l.13-.61c1.47-6.54,2.3-10.19,3.12-13.74s1.55-6.76,2.84-12.53l1,.22c-1.29,5.77-2.06,9.11-2.84,12.53s-1.6,7-3,13.13h0l-.13.61a6.56,6.56,0,0,0-.16,1.94,7.13,7.13,0,0,0,1.66,4.3H115.8a7.21,7.21,0,0,0,1.51-3.06l.1-.39.21-.93.9-4c1.8-8.08,2.24-10,4.54-20.24l1,.22c-2.3,10.22-2.73,12.16-4.54,20.24l-.9,4c-.1.42-.2.86-.3,1.31l-.11.39a8.18,8.18,0,0,1-1.79,3.29Z" data-name="Path 311"/></g><g id="arm"><path id="Path_312" fill="#505b65" d="M75.04,82.06l91.46,91.45h14.14L77.66,70.53Z" data-name="Path 312"/><path id="Path_313" fill="#d5d3d0" d="M141.43,152.78A7.79,7.79,0,0,1,138,159.6h0l-13.8,9.14-7.2,4.77H104.85a7.69,7.69,0,0,1-2-4.76v-.05a7.75,7.75,0,0,1,3.48-6.82l11.49-7.62,11.5-7.61a7.77,7.77,0,0,1,12.06,6.13Z" data-name="Path 313"/><path id="Path_314" fill="#505b65" d="M117.11,174H104.63l-.15-.17a8.253,8.253,0,0,1,1.62-12.38l6.66-4.41,4.83-3.2,2-1.3,9.54-6.32a8.37,8.37,0,0,1,4.19-1.37h.38a8.27,8.27,0,0,1,4.79,15h0l-.22.16L133,163.48l-8.58,5.69Zm-12-1h11.73l7.06-4.68,8.59-5.69,5.21-3.46a7.27,7.27,0,0,0-4.34-13.33,7.37,7.37,0,0,0-3.69,1.21l-9.54,6.31-2,1.29-4.83,3.2-6.66,4.41A7.26,7.26,0,0,0,105.08,173Z" data-name="Path 314"/><path id="Path_315" fill="#f7f2ed" d="M157.85,132.35v-.05a2.76,2.76,0,0,0-3.6-1.51l-11.59,4.76-7,2.86.86-2.11a2.76,2.76,0,0,0-1.52-3.6h-.05a2.76,2.76,0,0,0-3.6,1.52l-4.13,11.1a11.119,11.119,0,0,0-.41,1.1h0a1.35,1.35,0,0,0-.13.5,11,11,0,0,0,.47,6.95l.08.21a11,11,0,0,0,14.41,6l6-2.47,3.94-1.62a2.76,2.76,0,0,0,1.51-3.6v-.05a2.76,2.76,0,0,0-3.6-1.51l-1.77.72,3.63-1.49a2.76,2.76,0,0,0,1.51-3.6v-.05a2.76,2.76,0,0,0-3.6-1.51L146,146.22l5.08-2.09a2.76,2.76,0,0,0,1.51-3.6v-.05A2.76,2.76,0,0,0,149,139l-4.66,1.91h0l12-4.93a2.76,2.76,0,0,0,1.51-3.63Z" data-name="Path 315"/><path id="Path_316" fill="#505b65" d="M137.47,161.41a11.51,11.51,0,0,1-10.68-7.16l-.08-.21a11.44,11.44,0,0,1-.5-7.2,1.93,1.93,0,0,1,.16-.62,11.118,11.118,0,0,1,.41-1.11L130.89,134a3.291,3.291,0,1,1,6.1,2.47l-.41,1L154,130.33a3.292,3.292,0,1,1,2.5,6.09l-5.16,2.12a3.31,3.31,0,0,1,.23,5.92,3.29,3.29,0,0,1,.25,5.93,3.3,3.3,0,0,1,0,6.06l-10,4.09A11.49,11.49,0,0,1,137.47,161.41ZM133.92,133a2.26,2.26,0,0,0-2.1,1.41l-4.13,11.08a10.913,10.913,0,0,0-.4,1.07,1.27,1.27,0,0,0-.11.35v.14a10.45,10.45,0,0,0,.45,6.63l.08.21a10.54,10.54,0,0,0,13.76,5.75l10-4.09a2.316,2.316,0,0,0-1.77-4.28l-1.77.72-.38-.93,3.63-1.49a2.26,2.26,0,0,0,1.23-2.95,2.29,2.29,0,0,0-3-1.29l-3.21,1.32-.38-.93,5.08-2.09a2.26,2.26,0,0,0,1.23-3,2.3,2.3,0,0,0-3-1.28l-4.66,1.91-.38-.93h0l12-4.92a2.26,2.26,0,0,0,1.23-3,2.3,2.3,0,0,0-3-1.28l-19.65,8.07,1.31-3.22a2.26,2.26,0,0,0-1.24-2.95,2.33,2.33,0,0,0-.82-.03Z" data-name="Path 316"/><path id="Path_317" fill="#d5d3d0" d="M195.17,129.77A7.76,7.76,0,0,0,182,132.64h0L173.76,159h0a7.77,7.77,0,1,0,14.83,4.61h0l8.19-26.34h0A7.76,7.76,0,0,0,195.17,129.77Z" data-name="Path 317"/><path id="Path_318" fill="#505b65" d="M181.18,169.56A8.29,8.29,0,0,1,175,166.8a8.2,8.2,0,0,1-1.86-7.46h0l.15-.5L181.61,132h0a8.27,8.27,0,0,1,15.77,4.85h0l-.15.5-8.33,26.79h0a8.25,8.25,0,0,1-7.74,5.37Zm-6.8-10.9-.14.47a7.269,7.269,0,1,0,13.882,4.32l.138-.46h0l8-25.88a7.269,7.269,0,1,0-13.882-4.32l-.138.45h0Z" data-name="Path 318"/><path id="Path_319" fill="#f7f2ed" d="M210.39,125.45h0a2.76,2.76,0,0,0-3.85-.65l1.64-1.17a2.76,2.76,0,0,0,.65-3.85h0a2.76,2.76,0,0,0-3.85-.65l1.64-1.17a2.76,2.76,0,0,0,.65-3.85h0a2.76,2.76,0,0,0-3.85-.65l-5.21,3.7-3.23-4.55L188,117.35a11,11,0,0,0-2.61,15.4l.13.18a11,11,0,0,0,15.4,2.61l.49-.35,6.37-4.53,1.92-1.36a2.76,2.76,0,0,0,.69-3.85Z" data-name="Path 319"/><path id="Path_320" fill="#505b65" d="M194.56,138.09h0a11.58,11.58,0,0,1-9.42-4.86L185,133a11.55,11.55,0,0,1,2.73-16.1l7.27-5.17,3.23,4.55,4.8-3.41a3.292,3.292,0,0,1,4.06,5.17,3.3,3.3,0,0,1,1.59,5.71,3.3,3.3,0,0,1,1.34,5.91L201.24,136a11.47,11.47,0,0,1-6.68,2.09Zm.21-24.91-6.46,4.59a10.55,10.55,0,0,0-2.49,14.7l.13.18a10.57,10.57,0,0,0,8.61,4.44h0a10.47,10.47,0,0,0,6.1-1.95l8.79-6.24a2.26,2.26,0,0,0,.53-3.15,2.31,2.31,0,0,0-3.18-.58h0l-.58-.82,1.64-1.17a2.26,2.26,0,0,0,.53-3.15,2.31,2.31,0,0,0-3.18-.58h0l-.58-.82,1.64-1.17a2.26,2.26,0,0,0,.53-3.15,2.31,2.31,0,0,0-3.19-.58l-5.61,4Z" data-name="Path 320"/><path id="Path_321" fill="#d5d3d0" d="M210.29,111.47H195.61V85.9a2.23,2.23,0,0,1,2.23-2.23h10.22a2.23,2.23,0,0,1,2.23,2.23Z" data-name="Path 321"/><path id="Path_322" fill="#505b65" d="M210.79,112H195.11V85.9a2.73,2.73,0,0,1,2.73-2.73h10.22a2.73,2.73,0,0,1,2.73,2.73Zm-14.68-1h13.68V85.9a1.73,1.73,0,0,0-1.73-1.73H197.84a1.73,1.73,0,0,0-1.73,1.73Z" data-name="Path 322"/><path id="Path_323" fill="#d5d3d0" d="M209.55,111.47H194.87V85.9a2.23,2.23,0,0,1,2.23-2.23h10.22a2.23,2.23,0,0,1,2.23,2.23Z" data-name="Path 323"/><path id="Path_324" fill="#505b65" d="M210,112H194.37V85.9a2.73,2.73,0,0,1,2.73-2.73h10.22A2.73,2.73,0,0,1,210,85.9Zm-14.68-1H209V85.9a1.73,1.73,0,0,0-1.73-1.73H197.1a1.73,1.73,0,0,0-1.73,1.73Z" data-name="Path 324"/><path id="Path_325" fill="#f7f2ed" d="M196.35,110V85.9a.74.74,0,0,1,.74-.74h10.22a.74.74,0,0,1,.74.74V110Z" data-name="Path 325"/><path id="Path_326" fill="#505b65" d="M208.31,110.23H196.1V85.9a1,1,0,0,1,1-1h10.22a1,1,0,0,1,1,1Zm-11.7-.5h11.2V85.9a.49.49,0,0,0-.49-.49H197.1a.49.49,0,0,0-.49.49Z" data-name="Path 326"/><circle id="Ellipse_16" cx="1.93" cy="1.93" r="1.93" fill="#f7f2ed" data-name="Ellipse 16" transform="translate(200.28 95.36)"/><path id="Path_327" fill="#505b65" d="M202.21,99.46a2.18,2.18,0,1,1,2.18-2.18A2.18,2.18,0,0,1,202.21,99.46Zm0-3.85a1.68,1.68,0,1,0,1.68,1.68,1.68,1.68,0,0,0-1.68-1.68Z" data-name="Path 327"/><path id="Path_328" fill="#d5d3d0" d="M208.06,139.27H197.84a2.23,2.23,0,0,1-2.23-2.23V111.47h14.68V137a2.23,2.23,0,0,1-2.23,2.27Z" data-name="Path 328"/><path id="Path_329" fill="#505b65" d="M208.06,139.77H197.84a2.73,2.73,0,0,1-2.73-2.73V111h15.68v26a2.73,2.73,0,0,1-2.73,2.77ZM196.11,112v25a1.73,1.73,0,0,0,1.73,1.73h10.22a1.73,1.73,0,0,0,1.73-1.73V112Z" data-name="Path 329"/><path id="Path_330" fill="#d5d3d0" d="M207.31,139.27H197.1a2.23,2.23,0,0,1-2.23-2.23V111.47h14.68V137a2.23,2.23,0,0,1-2.24,2.27Z" data-name="Path 330"/><path id="Path_331" fill="#505b65" d="M207.31,139.77H197.1a2.73,2.73,0,0,1-2.73-2.73V111H210v26a2.73,2.73,0,0,1-2.69,2.77ZM195.37,112v25a1.73,1.73,0,0,0,1.73,1.73h10.22A1.73,1.73,0,0,0,209,137V112Z" data-name="Path 331"/><path id="Path_332" fill="#505b65" d="M207.31,138H197.1a1,1,0,0,1-1-1V112.7h12.2V137a1,1,0,0,1-.99,1ZM196.6,113.2V137a.49.49,0,0,0,.49.49h10.22a.49.49,0,0,0,.49-.49V113.2Z" data-name="Path 332"/><path id="Path_333" fill="#f7f2ed" d="M202.21,121.34a3.35,3.35,0,1,1,3.35-3.35,3.35,3.35,0,0,1-3.35,3.35Zm0-4.46a1.12,1.12,0,1,0,1.12,1.12A1.12,1.12,0,0,0,202.21,116.88Z" data-name="Path 333"/><path id="Path_334" fill="#505b65" d="M202.21,121.59a3.6,3.6,0,1,1,3.6-3.6,3.6,3.6,0,0,1-3.6,3.6Zm0-6.69a3.1,3.1,0,1,0,3.1,3.1,3.1,3.1,0,0,0-3.1-3.1Zm0,4.46a1.37,1.37,0,1,1,1.37-1.37,1.37,1.37,0,0,1-1.37,1.37Zm0-2.23a.87.87,0,1,0,.87.87A.87.87,0,0,0,202.21,117.13Z" data-name="Path 334"/><path id="Path_335" fill="#505b65" d="M199.45,128.19h-1a.95.95,0,0,1,0-1.89h1a.95.95,0,0,1,0,1.89Zm-1-1.39a.45.45,0,0,0,0,.89h1a.45.45,0,0,0,0-.89Z" data-name="Path 335"/><path id="Path_336" fill="#505b65" d="M202.7,128.19h-1a.95.95,0,0,1,0-1.89h1a.95.95,0,0,1,0,1.89Zm-1-1.39a.45.45,0,0,0,0,.89h1a.45.45,0,0,0,0-.89Z" data-name="Path 336"/><path id="Path_337" fill="#505b65" d="M205.94,128.19h-1a.95.95,0,0,1,0-1.89h1a.95.95,0,0,1,0,1.89Zm-1-1.39a.45.45,0,0,0,0,.89h1a.45.45,0,0,0,0-.89Z" data-name="Path 337"/><path id="Path_338" fill="#505b65" d="M199.45,130.06h-1a.95.95,0,0,1,0-1.89h1a.95.95,0,0,1,0,1.89Zm-1-1.39a.45.45,0,0,0,0,.89h1a.45.45,0,0,0,0-.89Z" data-name="Path 338"/><path id="Path_339" fill="#505b65" d="M202.7,130.06h-1a.95.95,0,0,1,0-1.89h1a.95.95,0,0,1,0,1.89Zm-1-1.39a.45.45,0,0,0,0,.89h1a.45.45,0,0,0,0-.89Z" data-name="Path 339"/><path id="Path_340" fill="#505b65" d="M205.94,130.06h-1a.95.95,0,0,1,0-1.89h1a.95.95,0,0,1,0,1.89Zm-1-1.39a.45.45,0,0,0,0,.89h1a.45.45,0,0,0,0-.89Z" data-name="Path 340"/><path id="Path_341" fill="#505b65" d="M199.45,131.94h-1a.95.95,0,0,1,0-1.89h1a.95.95,0,0,1,0,1.89Zm-1-1.39a.45.45,0,0,0,0,.89h1a.45.45,0,0,0,0-.89Z" data-name="Path 341"/><path id="Path_342" fill="#505b65" d="M202.7,131.94h-1a.95.95,0,0,1,0-1.89h1a.95.95,0,0,1,0,1.89Zm-1-1.39a.45.45,0,0,0,0,.89h1a.45.45,0,0,0,0-.89Z" data-name="Path 342"/><path id="Path_343" fill="#505b65" d="M205.94,131.94h-1a.95.95,0,0,1,0-1.89h1a.95.95,0,0,1,0,1.89Zm-1-1.39a.45.45,0,0,0,0,.89h1a.45.45,0,0,0,0-.89Z" data-name="Path 343"/><path id="Path_344" fill="#505b65" d="M199.45,133.81h-1a.95.95,0,0,1,0-1.9h1a.95.95,0,0,1,0,1.9Zm-1-1.4a.45.45,0,1,0,0,.9h1a.45.45,0,1,0,0-.9Z" data-name="Path 344"/><path id="Path_345" fill="#505b65" d="M202.7,133.81h-1a.95.95,0,0,1,0-1.9h1a.95.95,0,0,1,0,1.9Zm-1-1.4a.45.45,0,1,0,0,.9h1a.45.45,0,1,0,0-.9Z" data-name="Path 345"/><path id="Path_346" fill="#505b65" d="M205.94,133.81h-1a.95.95,0,0,1,0-1.9h1a.95.95,0,1,1,0,1.9Zm-1-1.4a.45.45,0,1,0,0,.9h1a.45.45,0,1,0,0-.9Z" data-name="Path 346"/><rect id="Rectangle_28" width=".51" height="2.57" fill="#505b65" data-name="Rectangle 28" rx=".25" transform="translate(203.15 134.62)"/><rect id="Rectangle_29" width=".51" height="2.57" fill="#505b65" data-name="Rectangle 29" rx=".25" transform="translate(202.35 134.62)"/><rect id="Rectangle_30" width=".51" height="2.57" fill="#505b65" data-name="Rectangle 30" rx=".25" transform="translate(201.55 134.62)"/><rect id="Rectangle_31" width=".51" height="2.57" fill="#505b65" data-name="Rectangle 31" rx=".25" transform="translate(200.75 134.62)"/><path id="Path_347" fill="#f7f2ed" d="M187.26,117.9l8.34-5.9a2.76,2.76,0,0,1,3.85.65h0a2.76,2.76,0,0,1-.65,3.85l-6.49,4.61Z" data-name="Path 347"/><path id="Path_348" fill="#505b65" d="M192.34,121.63a.5.5,0,0,1-.29-.91l6.49-4.61a2.29,2.29,0,0,0-2.65-3.73l-8.34,5.93a.5.5,0,1,1-.58-.82l8.34-5.93a3.29,3.29,0,0,1,3.81,5.36l-6.49,4.61A.5.5,0,0,1,192.34,121.63Z" data-name="Path 348"/></g><g id="man"><rect id="Rectangle_32" width="61.89" height="15.5" fill="#d5d3d0" data-name="Rectangle 32" rx="7.67" transform="translate(282.54 106.27)"/><path id="Path_349" fill="#505b65" d="M336.76,122.26H290.21a8.18,8.18,0,0,1-8.17-8.17v-.15a8.18,8.18,0,0,1,8.17-8.17h46.55a8.18,8.18,0,0,1,8.17,8.17v.15a8.18,8.18,0,0,1-8.17,8.17Zm-46.55-15.5a7.18,7.18,0,0,0-7.17,7.17v.15a7.18,7.18,0,0,0,7.17,7.17h46.55a7.18,7.18,0,0,0,7.17-7.17v-.15a7.18,7.18,0,0,0-7.17-7.17Z" data-name="Path 349"/><path id="Path_350" fill="#d5d3d0" d="M340.36,113.49a28.84,28.84,0,0,1,15.1,25.36v31.54H271.51V138.85a28.84,28.84,0,0,1,15.54-25.6Z" data-name="Path 350"/><path id="Path_351" fill="#505b65" d="M356,170.89H271v-32a29.281,29.281,0,0,1,15.812-26l.458.891A28.28,28.28,0,0,0,272,138.85v31h83v-31a28.35,28.35,0,0,0-14.831-24.921l.481-.879A29.35,29.35,0,0,1,356,138.85Z" data-name="Path 351"/><path id="Path_352" fill="#505b65" d="M316,159.47h-5v-32h5Zm-4-1h3v-30h-3Z" data-name="Path 352"/><path id="Path_353" fill="#f7f2ed" d="M343.44,69V51.69a29.61,29.61,0,0,0-29.61-29.61h-.6a29.61,29.61,0,0,0-29.61,29.61V69a6.92,6.92,0,1,0,0,13.84h.15a29.5,29.5,0,0,0,8.82,18.24,17.07,17.07,0,0,1,5.21,13.2v.1h0v.89a15.76,15.76,0,0,0,31.51,0v-.89h0v-.1a17.07,17.07,0,0,1,5.21-13.2,29.5,29.5,0,0,0,8.82-18.24h.15a6.92,6.92,0,1,0,0-13.84Z" data-name="Path 353"/><path id="Path_354" fill="#505b65" d="M313.53,131.53a16.28,16.28,0,0,1-16.26-16.26v-1.02a16.58,16.58,0,0,0-5.06-12.81,30.1,30.1,0,0,1-8.92-18.1,7.42,7.42,0,0,1-.2-14.82V51.69A30.14,30.14,0,0,1,313.2,21.58h.6a30.14,30.14,0,0,1,30.11,30.11V68.51a7.42,7.42,0,0,1-.2,14.82,30.1,30.1,0,0,1-8.92,18.1,16.58,16.58,0,0,0-5.06,12.81v.53h0v.49A16.28,16.28,0,0,1,313.53,131.53Zm-15.21-17.65h0v1.39a15.26,15.26,0,0,0,30.51,0v-1.39h0a17.59,17.59,0,0,1,5.38-13.16,29.09,29.09,0,0,0,8.67-17.93v-.46h.46l.14.51v-.5a6.42,6.42,0,1,0,0-12.84h-.5V51.69a29.14,29.14,0,0,0-29.11-29.11h-.6a29.14,29.14,0,0,0-29.11,29.11V69.5h-.5a6.42,6.42,0,1,0,0,12.84h.46l.19.45a29.09,29.09,0,0,0,8.67,17.93,17.59,17.59,0,0,1,5.35,13.16Z" data-name="Path 354"/><path id="Path_355" fill="#a6a9ab" d="M343.47,72.05v7.74a3.87,3.87,0,0,0,0-7.74Z" data-name="Path 355"/><path id="Path_356" fill="#a6a9ab" d="M283.5,72.05v7.74a3.87,3.87,0,0,1,0-7.74Z" data-name="Path 356"/><circle id="Ellipse_17" cx="1.76" cy="1.76" r="1.76" fill="#505b65" data-name="Ellipse 17" transform="translate(300.29 65.29)"/><circle id="Ellipse_18" cx="1.76" cy="1.76" r="1.76" fill="#505b65" data-name="Ellipse 18" transform="translate(323.26 65.29)"/><path id="Path_357" fill="#505b65" d="M314.19,85.16A5.14,5.14,0,0,1,309,80V70.48a.5.5,0,0,1,1,0V80a4.16,4.16,0,0,0,8.32,0v-.66a.5.5,0,0,1,1,0V80a5.12,5.12,0,0,1-5.13,5.16Z" data-name="Path 357"/><path id="Path_358" fill="#505b65" d="M313.78,21.93h-.6A29.69,29.69,0,0,0,283.5,51.61V90.89a29.69,29.69,0,0,0,29.69,29.69h.6a29.69,29.69,0,0,0,29.69-29.69V51.61a29.69,29.69,0,0,0-29.7-29.68Zm22.91,69.7v.7a4.44,4.44,0,0,1-4.44,4.44h-.09a4.44,4.44,0,0,1-4.44-4.44v-.12a7.28,7.28,0,0,0-7.28-7.28H306.3a7.28,7.28,0,0,0-7.3,7.28v.12a4.44,4.44,0,0,1-4.44,4.44h-.09A4.44,4.44,0,0,1,290,92.33V54.84h46.7Z" data-name="Path 358"/><path id="Path_359" fill="#f7f2ed" d="M314.71,106.79a4.47,4.47,0,0,1-4.25-6l.22-.59a.5.5,0,0,1,.94.35l-.22.59a3.47,3.47,0,0,0,3.25,4.69.53.53,0,0,1,.53.5.48.48,0,0,1-.47.46Z" data-name="Path 359"/><path id="Path_360" fill="#505b65" d="M331,67.11a.5.5,0,0,1-.49-.43,6.25,6.25,0,0,0-11.14-2.91.5.5,0,0,1-.79-.61,7.25,7.25,0,0,1,12.92,3.38.5.5,0,0,1-.42.57Z" data-name="Path 360"/><path id="Path_361" fill="#505b65" d="M296,67.11h0a.5.5,0,0,1-.42-.57,7.25,7.25,0,0,1,12.92-3.38.5.5,0,0,1-.79.61,6.25,6.25,0,0,0-11.13,2.91.5.5,0,0,1-.58.43Z" data-name="Path 361"/><path id="Path_362" fill="#f7f2ed" d="M307.62,88.64v.07a5.915,5.915,0,0,0,11.83,0s0,0,0-.07Z" data-name="Path 362"/><path id="Path_363" fill="#505b65" d="M313.53,95.12a6.42,6.42,0,0,1-6.41-6.41v-.5l.5-.07h12.32v.5a6.43,6.43,0,0,1-6.41,6.48Zm-5.39-6a5.41,5.41,0,0,0,10.79,0Z" data-name="Path 363"/><path id="Path_364" fill="#505b65" d="M290,54.84s2.41,4.86,15,4.67V50Z" data-name="Path 364"/><path id="Path_365" fill="#505b65" d="M305,54.84s2.41,4.86,15,4.67V50Z" data-name="Path 365"/><path id="Path_366" fill="#505b65" d="M319.93,54.84s2.41,4.86,15,4.67V50Z" data-name="Path 366"/><circle id="Ellipse_19" cx="2.69" cy="2.69" r="2.69" fill="#f7f2ed" data-name="Ellipse 19" transform="translate(331.48 117.22)"/><path id="Path_367" fill="#505b65" d="M334.17,123.09a3.19,3.19,0,1,1,3.19-3.19,3.19,3.19,0,0,1-3.19,3.19Zm0-5.38a2.192,2.192,0,1,1,0,.01Z" data-name="Path 367"/><circle id="Ellipse_20" cx="1.31" cy="1.31" r="1.31" fill="#f7f2ed" data-name="Ellipse 20" transform="translate(332.86 118.6)"/><path id="Path_368" fill="#505b65" d="M334.17,121.72a1.81,1.81,0,1,1,1.81-1.81,1.81,1.81,0,0,1-1.81,1.81Zm0-2.63a.81.81,0,1,0,.81.81A.81.81,0,0,0,334.17,119.09Z" data-name="Path 368"/><path id="Path_369" fill="#505b65" d="M334.17,140.95a.5.5,0,0,1-.5-.5V119.91a.5.5,0,1,1,1,0v20.54a.5.5,0,0,1-.5.5Z" data-name="Path 369"/><path id="Path_370" fill="#505b65" d="M334.17,137.61a1.5,1.5,0,0,1-1.5-1.5v-16.2a1.5,1.5,0,1,1,3,0v16.21a1.5,1.5,0,0,1-1.5,1.49Z" data-name="Path 370"/><circle id="Ellipse_21" cx="2.69" cy="2.69" r="2.69" fill="#f7f2ed" data-name="Ellipse 21" transform="translate(290.2 117.22)"/><path id="Path_371" fill="#505b65" d="M292.89,123.09a3.19,3.19,0,1,1,3.19-3.19A3.19,3.19,0,0,1,292.89,123.09Zm0-5.38a2.185,2.185,0,1,1,0,.01Z" data-name="Path 371"/><circle id="Ellipse_22" cx="1.31" cy="1.31" r="1.31" fill="#f7f2ed" data-name="Ellipse 22" transform="translate(291.58 118.6)"/><path id="Path_372" fill="#505b65" d="M292.89,121.72a1.81,1.81,0,1,1,1.81-1.81A1.81,1.81,0,0,1,292.89,121.72Zm0-2.63a.81.81,0,1,0,.81.81.81.81,0,0,0-.81-.81Z" data-name="Path 372"/><path id="Path_373" fill="#505b65" d="M292.89,140.95a.5.5,0,0,1-.5-.5V119.91a.5.5,0,1,1,1,0v20.54a.5.5,0,0,1-.5.5Z" data-name="Path 373"/><path id="Path_374" fill="#505b65" d="M292.89,137.61a1.5,1.5,0,0,1-1.5-1.5v-16.2a1.5,1.5,0,1,1,3,0v16.21a1.5,1.5,0,0,1-1.5,1.49Z" data-name="Path 374"/></g><g id="line"><path id="Path_375" fill="#505b65" d="M286,173.51h14.15L386.4,87.26l-2.62-11.53Z" data-name="Path 375"/></g><g id="box"><path id="Path_376" fill="#505b65" d="M288,169v-.53a26.71,26.71,0,1,1,53.42,0V169h6.25v-.53a33,33,0,1,0-65.92,0c0,.18,0,.35,0,.53Z" data-name="Path 376"/><path id="Path_377" fill="#505b65" d="M348.12,169.53h-7.25V168.5a26.21,26.21,0,1,0-52.42,0v1.02H281.2V168.5a33.46,33.46,0,1,1,66.92,0c0,.11,0,.21,0,.32Zm-6.23-1h5.25a32.46,32.46,0,1,0-64.92,0h5.25a27.21,27.21,0,1,1,54.42,0Z" data-name="Path 377"/><path id="Path_378" fill="#f7f2ed" d="M312.33,138.14a.5.5,0,0,1,0-1c.79-.06,1.6-.09,2.39-.09a.5.5,0,0,1,0,1,19.826,19.826,0,0,0-2.31.09Z" data-name="Path 378"/><path id="Path_379" fill="#f7f2ed" d="M303.82,140a.508.508,0,1,1-.18-1,31.238,31.238,0,0,1,6.48-1.67.51.51,0,0,1,.57.42.5.5,0,0,1-.42.57A30.248,30.248,0,0,0,304,140a.48.48,0,0,1-.18,0Z" data-name="Path 379"/><path id="Path_380" fill="#f7f2ed" d="M329.68,159.91l-.17-.07a8.85,8.85,0,0,1-4.81-11.56l2.57-6.24,16.53,6.82-2.57,6.24A8.85,8.85,0,0,1,329.68,159.91Z" data-name="Path 380"/><path id="Path_381" fill="#505b65" d="M333.05,161.08a9.288,9.288,0,0,1-3.558-.709l-.172-.071a9.36,9.36,0,0,1-5.08-12.21l2.76-6.7,17.45,7.2-2.77,6.7a9.32,9.32,0,0,1-8.63,5.79Zm-5.5-18.38-2.38,5.78a8.36,8.36,0,0,0,4.54,10.91l.17.07a8.35,8.35,0,0,0,10.9-4.54l2.38-5.78Z" data-name="Path 381"/><rect id="Rectangle_33" width="15.25" height="4.47" fill="#f7f2ed" data-name="Rectangle 33" rx="2.21" transform="translate(325.335 146.732) rotate(-67.63)"/><path id="Path_382" fill="#505b65" d="M328.27,148.27a2.69,2.69,0,0,1-1-.21,2.72,2.72,0,0,1-1.51-1.48,2.69,2.69,0,0,1,0-2.08l4.13-10a2.74,2.74,0,0,1,5.06,2.09l-4.13,10A2.71,2.71,0,0,1,328.27,148.27Zm4.09-14.45a1.71,1.71,0,0,0-1.58,1.06l-4.13,10a1.71,1.71,0,0,0,.93,2.24,1.66,1.66,0,0,0,2.28-.91l4.13-10a1.72,1.72,0,0,0-.93-2.24,1.76,1.76,0,0,0-.7-.15Z" data-name="Path 382"/><rect id="Rectangle_34" width="15.25" height="4.47" fill="#f7f2ed" data-name="Rectangle 34" rx="2.21" transform="translate(328.38 151.059) rotate(-67.63)"/><path id="Path_383" fill="#505b65" d="M331.32,152.6a2.69,2.69,0,0,1-1-.21,2.73,2.73,0,0,1-1.51-3.56l4.13-10a2.737,2.737,0,0,1,5.06,2.09l-4.13,10A2.7,2.7,0,0,1,331.32,152.6Zm4.09-14.45a1.71,1.71,0,0,0-1.58,1.06l-4.13,10a1.72,1.72,0,0,0,.93,2.24,1.77,1.77,0,0,0,.69.15,1.71,1.71,0,0,0,1.58-1.06l4.13-10a1.71,1.71,0,0,0-.93-2.24,1.79,1.79,0,0,0-.69-.15Z" data-name="Path 383"/><rect id="Rectangle_35" width="15.25" height="4.47" fill="#f7f2ed" data-name="Rectangle 35" rx="2.21" transform="translate(331.899 154.262) rotate(-67.63)"/><path id="Path_384" fill="#505b65" d="M334.84,155.8a2.69,2.69,0,0,1-1-.21,2.73,2.73,0,0,1-1.51-3.56l4.13-10a2.737,2.737,0,0,1,5.06,2.09l-4.13,10A2.7,2.7,0,0,1,334.84,155.8Zm4.09-14.45a1.71,1.71,0,0,0-1.58,1.06l-4.13,10a1.72,1.72,0,0,0,.93,2.24,1.77,1.77,0,0,0,.69.15,1.71,1.71,0,0,0,1.58-1.06l4.13-10a1.71,1.71,0,0,0-.93-2.24,1.79,1.79,0,0,0-.69-.15Z" data-name="Path 384"/><path id="Path_385" fill="#f7f2ed" d="M338.53,155.86h0a2.21,2.21,0,0,1-1.2-2.89l3.11-7.54a2.21,2.21,0,0,1,2.89-1.2h0a2.21,2.21,0,0,1,1.2,2.89l-3.11,7.54a2.21,2.21,0,0,1-2.89,1.2Z" data-name="Path 385"/><path id="Path_386" fill="#505b65" d="M339.37,156.53a2.69,2.69,0,0,1-1-.21,2.72,2.72,0,0,1-1.51-1.48,2.69,2.69,0,0,1,0-2.08l3.11-7.54a2.737,2.737,0,1,1,5.06,2.09l-3.11,7.54a2.7,2.7,0,0,1-2.55,1.68Zm3.07-12a1.71,1.71,0,0,0-1.58,1.06l-3.11,7.54a1.71,1.71,0,0,0,.93,2.24,1.66,1.66,0,0,0,2.28-.91l3.11-7.54a1.71,1.71,0,0,0-.93-2.24,1.79,1.79,0,0,0-.7-.13Z" data-name="Path 386"/><path id="Path_387" fill="#f7f2ed" d="M321.34,146.61h0a2.21,2.21,0,0,1,3-.76L328,148a2.21,2.21,0,0,1,.77,3h0a2.21,2.21,0,0,1-3,.76l-3.6-2.14a2.21,2.21,0,0,1-.83-3.01Z" data-name="Path 387"/><path id="Path_388" fill="#505b65" d="M326.83,152.6a2.71,2.71,0,0,1-1.38-.38l-3.6-2.14a2.71,2.71,0,0,1-.94-3.73,2.78,2.78,0,0,1,3.74-1l3.6,2.14a2.71,2.71,0,0,1,.94,3.73,2.75,2.75,0,0,1-2.36,1.38Zm-3.57-6.6a1.7,1.7,0,0,0-1.47.83,1.73,1.73,0,0,0-.21,1.34,1.7,1.7,0,0,0,.79,1.05l3.6,2.14a1.75,1.75,0,0,0,2.34-.59,1.73,1.73,0,0,0,.21-1.34,1.7,1.7,0,0,0-.79-1.05l-3.6-2.14a1.71,1.71,0,0,0-.87-.24Z" data-name="Path 388"/><path id="Path_389" fill="#f7f2ed" d="M298.76,159.91l.17-.07a8.85,8.85,0,0,0,4.81-11.56L301.16,142l-16.53,6.82,2.57,6.24a8.85,8.85,0,0,0,11.56,4.85Z" data-name="Path 389"/><path id="Path_390" fill="#505b65" d="M295.39,161.08h0a9.32,9.32,0,0,1-8.65-5.79l-2.77-6.7,17.45-7.2,2.76,6.7a9.36,9.36,0,0,1-5.08,12.21l-.17.07A9.29,9.29,0,0,1,295.39,161.08Zm-10.11-11.95,2.38,5.78a8.33,8.33,0,0,0,7.72,5.17h0a8.31,8.31,0,0,0,3.18-.63l.17-.07a8.35,8.35,0,0,0,4.54-10.91l-2.38-5.78Z" data-name="Path 390"/><path id="Path_391" fill="#f7f2ed" d="M301,147.6h0a2.21,2.21,0,0,0,1.2-2.89l-4.13-10a2.21,2.21,0,0,0-2.89-1.2h0a2.21,2.21,0,0,0-1.2,2.89l4.13,10a2.21,2.21,0,0,0,2.89,1.2Z" data-name="Path 391"/><path id="Path_392" fill="#505b65" d="M300.17,148.27h0a2.7,2.7,0,0,1-2.51-1.68l-4.13-10A2.72,2.72,0,0,1,295,133a2.68,2.68,0,0,1,3.58,1.46l4.13,10a2.71,2.71,0,0,1-1.47,3.54A2.74,2.74,0,0,1,300.17,148.27Zm-4.09-14.45a1.7,1.7,0,0,0-.65.13,1.73,1.73,0,0,0-1,2.25l4.13,10a1.71,1.71,0,0,0,1.59,1.06h0a1.71,1.71,0,0,0,.65-.13,1.74,1.74,0,0,0,1-.94,1.7,1.7,0,0,0,0-1.31l-4.13-10a1.71,1.71,0,0,0-1.59-1.06Z" data-name="Path 392"/><rect id="Rectangle_36" width="4.47" height="15.25" fill="#f7f2ed" data-name="Rectangle 36" rx="2.21" transform="translate(290.11 138.69) rotate(-22.37)"/><path id="Path_393" fill="#505b65" d="M297.12,152.6h0a2.7,2.7,0,0,1-2.51-1.68l-4.13-10a2.74,2.74,0,0,1,5.06-2.09l4.13,10a2.71,2.71,0,0,1-1.47,3.54,2.74,2.74,0,0,1-1.08.23ZM293,138.15a1.73,1.73,0,0,0-1.62,2.38l4.13,10a1.71,1.71,0,0,0,1.58,1.06h0a1.71,1.71,0,0,0,.65-.13,1.73,1.73,0,0,0,1-.94,1.71,1.71,0,0,0,0-1.31l-4.13-10a1.71,1.71,0,0,0-1.61-1.06Z" data-name="Path 393"/><rect id="Rectangle_37" width="4.47" height="15.25" fill="#f7f2ed" data-name="Rectangle 37" rx="2.21" transform="translate(286.583 141.889) rotate(-22.37)"/><path id="Path_394" fill="#505b65" d="M293.6,155.8h0a2.7,2.7,0,0,1-2.51-1.68l-4.13-10A2.74,2.74,0,0,1,292,142l4.13,10a2.71,2.71,0,0,1-1.47,3.54,2.74,2.74,0,0,1-1.06.26Zm-4.09-14.45a1.73,1.73,0,0,0-1.62,2.38l4.13,10a1.71,1.71,0,0,0,1.58,1.06h0a1.71,1.71,0,0,0,.65-.13,1.73,1.73,0,0,0,1-.94,1.71,1.71,0,0,0,0-1.31l-4.13-10a1.71,1.71,0,0,0-1.61-1.06Z" data-name="Path 394"/><path id="Path_395" fill="#f7f2ed" d="M289.91,155.86h0a2.21,2.21,0,0,0,1.2-2.89L288,145.42a2.21,2.21,0,0,0-2.89-1.2h0a2.21,2.21,0,0,0-1.2,2.89l3.11,7.54a2.21,2.21,0,0,0,2.89,1.21Z" data-name="Path 395"/><path id="Path_396" fill="#505b65" d="M289.07,156.53h0a2.71,2.71,0,0,1-2.51-1.68l-3.11-7.54a2.72,2.72,0,0,1,1.47-3.54,2.68,2.68,0,0,1,3.58,1.46l3.11,7.54a2.75,2.75,0,0,1-2.55,3.76Zm-3.07-12a1.71,1.71,0,0,0-.65.13,1.73,1.73,0,0,0-1,.94,1.71,1.71,0,0,0,0,1.31l3.11,7.54a1.71,1.71,0,0,0,1.58,1.06h0a1.75,1.75,0,0,0,1.62-2.38l-3.11-7.54a1.71,1.71,0,0,0-1.55-1.04Z" data-name="Path 396"/><path id="Path_397" fill="#f7f2ed" d="M307.1,146.61h0a2.21,2.21,0,0,0-3-.76l-3.6,2.14a2.21,2.21,0,0,0-.77,3h0a2.21,2.21,0,0,0,3,.76l3.6-2.14a2.21,2.21,0,0,0,.77-3Z" data-name="Path 397"/><path id="Path_398" fill="#505b65" d="M301.61,152.6h0a2.76,2.76,0,0,1-2.66-3.41,2.69,2.69,0,0,1,1.24-1.67l3.6-2.14a2.79,2.79,0,0,1,3.71.94,2.71,2.71,0,0,1-.92,3.76l-3.6,2.14A2.71,2.71,0,0,1,301.61,152.6Zm3.57-6.61a1.71,1.71,0,0,0-.87.24l-3.6,2.14a1.741,1.741,0,0,0,.9,3.22h0a1.71,1.71,0,0,0,.87-.24l3.6-2.14a1.733,1.733,0,0,0-.9-3.21Z" data-name="Path 398"/><path id="Path_399" fill="#505b65" d="M392.57,173.51H74.07a12.57,12.57,0,0,1,9.86-4.76H246.59A22.18,22.18,0,0,1,265,159h99.4a22.16,22.16,0,0,1,18.37,9.79,12.56,12.56,0,0,1,9.8,4.72Z" data-name="Path 399"/><path id="Path_400" fill="#fff" d="M125.12,9.94H114.18a9.38,9.38,0,0,0-9.2,7.35L69.5,173.51H80.44L115.92,17.29a9.38,9.38,0,0,1,9.2-7.35Z" data-name="Path 400" opacity=".8"/><path id="Path_401" fill="#fff" d="M335.13,9.94h10.94a9.38,9.38,0,0,1,9.2,7.35l35.48,156.22H379.81L344.33,17.29a9.38,9.38,0,0,0-9.2-7.35Z" data-name="Path 401" opacity=".8"/><path id="Path_402" fill="#505b65" d="M406.61,174h-353L89.26,17.18A9.88,9.88,0,0,1,99,9.44H361.31A9.88,9.88,0,0,1,371,17.18ZM54.9,173H405.36L370,17.4a8.89,8.89,0,0,0-8.71-7H99a8.88,8.88,0,0,0-8.71,7Z" data-name="Path 402"/></g></g></g></svg>