<?xml version="1.0" encoding="UTF-8" standalone="no"?>
<svg
   xmlns:dc="http://purl.org/dc/elements/1.1/"
   xmlns:cc="http://creativecommons.org/ns#"
   xmlns:rdf="http://www.w3.org/1999/02/22-rdf-syntax-ns#"
   xmlns:svg="http://www.w3.org/2000/svg"
   xmlns="http://www.w3.org/2000/svg"
   xmlns:xlink="http://www.w3.org/1999/xlink"
   xmlns:sodipodi="http://sodipodi.sourceforge.net/DTD/sodipodi-0.dtd"
   xmlns:inkscape="http://www.inkscape.org/namespaces/inkscape"
   viewBox="0 0 640 640"
   version="1.1"
   id="svg917"
   sodipodi:docname="bhn-app.svg"
   width="640"
   height="640"
   inkscape:version="1.0.1 (c497b03c, 2020-09-10)">
  <metadata
     id="metadata921">
    <rdf:RDF>
      <cc:Work
         rdf:about="">
        <dc:format>image/svg+xml</dc:format>
        <dc:type
           rdf:resource="http://purl.org/dc/dcmitype/StillImage" />
        <dc:title></dc:title>
      </cc:Work>
    </rdf:RDF>
  </metadata>
  <sodipodi:namedview
     pagecolor="#ffffff"
     bordercolor="#666666"
     borderopacity="1"
     objecttolerance="10"
     gridtolerance="10"
     guidetolerance="10"
     inkscape:pageopacity="0"
     inkscape:pageshadow="2"
     inkscape:window-width="1536"
     inkscape:window-height="915"
     id="namedview919"
     showgrid="false"
     fit-margin-top="0"
     fit-margin-left="0"
     fit-margin-right="0"
     fit-margin-bottom="0"
     lock-margins="true"
     inkscape:zoom="1.1125"
     inkscape:cx="285.88949"
     inkscape:cy="323.17146"
     inkscape:window-x="0"
     inkscape:window-y="23"
     inkscape:window-maximized="1"
     inkscape:current-layer="Layer_3"
     inkscape:document-rotation="0" />
  <defs
     id="defs862">
    <style
       id="style833">.cls-1{fill:none;}.cls-2{fill:url(#linear-gradient);}.cls-3{fill:url(#linear-gradient-2);}.cls-4{fill:url(#linear-gradient-3);}.cls-5{fill:url(#linear-gradient-4);}.cls-6{fill:url(#linear-gradient-5);}.cls-7{fill:url(#linear-gradient-6);}.cls-8{fill:url(#linear-gradient-7);}.cls-9{fill:url(#linear-gradient-8);}.cls-10{fill:url(#linear-gradient-9);}.cls-11{fill:url(#linear-gradient-10);}.cls-12{fill:url(#linear-gradient-11);}.cls-13{fill:url(#linear-gradient-12);}.cls-14{fill:#f4981e;}.cls-15{fill:#ff0013;}.cls-16{clip-path:url(#clip-path);}.cls-17{fill:#a00e64;}.cls-18{fill:#c9161d;}.cls-19{fill:#f7941d;}.cls-20{fill:#f37125;}</style>
    <linearGradient
       id="linear-gradient"
       x1="436.56"
       y1="460.95999"
       x2="434.76999"
       y2="564.60999"
       gradientUnits="userSpaceOnUse">
      <stop
         offset="0"
         stop-color="#bc1744"
         id="stop835" />
      <stop
         offset="1"
         stop-color="#6d022c"
         id="stop837" />
    </linearGradient>
    <linearGradient
       id="linear-gradient-2"
       x1="489.85001"
       y1="461.88"
       x2="488.04999"
       y2="565.53003"
       xlink:href="#linear-gradient" />
    <linearGradient
       id="linear-gradient-3"
       x1="536.78003"
       y1="462.70001"
       x2="534.98999"
       y2="566.34998"
       xlink:href="#linear-gradient" />
    <linearGradient
       id="linear-gradient-4"
       x1="572.65997"
       y1="463.32001"
       x2="570.85999"
       y2="566.96997"
       xlink:href="#linear-gradient" />
    <linearGradient
       id="linear-gradient-5"
       x1="606.59998"
       y1="463.91"
       x2="604.81"
       y2="567.56"
       xlink:href="#linear-gradient" />
    <linearGradient
       id="linear-gradient-6"
       x1="669.71002"
       y1="465.04999"
       x2="667.90997"
       y2="568.70001"
       xlink:href="#linear-gradient" />
    <linearGradient
       id="linear-gradient-7"
       x1="736.28998"
       y1="466.16"
       x2="734.48999"
       y2="569.81"
       xlink:href="#linear-gradient" />
    <linearGradient
       id="linear-gradient-8"
       x1="791.19"
       y1="467.10999"
       x2="789.39001"
       y2="570.76001"
       xlink:href="#linear-gradient" />
    <linearGradient
       id="linear-gradient-9"
       x1="844.71997"
       y1="468.04001"
       x2="842.91998"
       y2="571.69"
       xlink:href="#linear-gradient" />
    <linearGradient
       id="linear-gradient-10"
       x1="640"
       y1="313.32001"
       x2="640"
       y2="443.67001"
       gradientUnits="userSpaceOnUse"
       gradientTransform="matrix(1.3616938,0,0,1.0608841,-235.08666,-6.3154566)">
      <stop
         offset="0"
         stop-color="#f2e52b"
         id="stop848" />
      <stop
         offset="1"
         stop-color="#f7a824"
         id="stop850" />
    </linearGradient>
    <linearGradient
       id="linear-gradient-11"
       x1="571.25"
       y1="348.35001"
       x2="570.28998"
       y2="318.59"
       xlink:href="#linear-gradient"
       gradientTransform="matrix(1.3616938,0,0,1.0608841,-235.08666,-6.3154566)" />
    <linearGradient
       id="linear-gradient-12"
       x1="710.46997"
       y1="349.01001"
       x2="711.42999"
       y2="313.48999"
       gradientUnits="userSpaceOnUse"
       gradientTransform="matrix(1.3616938,0,0,1.0608841,-235.08666,-6.3154566)">
      <stop
         offset="0"
         stop-color="#961744"
         id="stop854" />
      <stop
         offset="1"
         stop-color="#6d022c"
         id="stop856" />
    </linearGradient>
    <clipPath
       id="clip-path">
      <path
         class="cls-1"
         d="m 781.85,324.53 q -1.29,5.63 -3,11.09 c -0.75,2.4 -1.57,4.77 -2.44,7.11 a 145.54,145.54 0 0 1 -272.61,0.5 c -1,-2.5 -1.82,-5 -2.63,-7.61 q -1.73,-5.46 -3,-11.09 l 0.46,-0.14 c 40.4,-12.31 87.26,-19.5 137.3,-19.87 h 7.55 c 50.1,0.32 97,7.46 137.48,19.75 z"
         id="path859" />
    </clipPath>
    <linearGradient
       inkscape:collect="always"
       xlink:href="#linear-gradient"
       id="linearGradient923"
       gradientUnits="userSpaceOnUse"
       x1="436.56"
       y1="460.95999"
       x2="434.76999"
       y2="564.60999" />
  </defs>
  <g
     id="Layer_3"
     data-name="Layer 3"
     transform="translate(-319.98999,-55.60498)"
     style="display:inline">
    <circle
       style="display:inline;fill:#ffcad4;fill-opacity:0.960784;stroke-width:0.0113386;paint-order:stroke fill markers"
       id="path1658"
       cx="639.98999"
       cy="375.60498"
       inkscape:label="path1658"
       r="320" />
    <g
       id="g104">
      <path
         class="cls-2"
         d="m 412.85,466.18 26.92,-0.11 a 64,64 0 0 1 7.27,0.29 24.75,24.75 0 0 1 4.83,1.09 9.12,9.12 0 0 1 4.93,4.85 19.77,19.77 0 0 1 1.7,8.75 q 0,9.33 -0.08,18.66 a 38.54,38.54 0 0 1 -0.28,5 18.3,18.3 0 0 1 -0.92,3.6 q -1.82,5.33 -8.12,7.66 5.38,1.41 7.49,4.89 2.11,3.48 2.07,10.52 -0.06,11.37 -0.11,22.72 c 0,2 0,3.66 -0.09,5 -0.09,1.34 -0.13,2.58 -0.27,3.65 a 29.86,29.86 0 0 1 -0.52,3 c -0.22,0.93 -0.5,1.95 -0.85,3.06 q -3,9 -13.95,11.4 -15.06,3.27 -30,7 z m 18.71,42.76 a 5.13,5.13 0 0 1 1,0 4.75,4.75 0 0 0 0.84,0 q 5.25,-0.45 7,-2 1.75,-1.55 1.75,-5.71 c 0,-2.21 0,-4.41 0,-6.62 q 0,-4 -1.27,-5.51 -1.27,-1.51 -4.23,-1.35 l -6.17,0.28 q 0,10.49 0,21 z m -0.11,51.9 1.66,-0.31 a 22.49,22.49 0 0 0 4.14,-1.09 6.48,6.48 0 0 0 2.5,-1.58 5.41,5.41 0 0 0 1.22,-2.64 22.48,22.48 0 0 0 0.33,-4.1 q 0,-7.92 0.05,-15.85 c 0,-2.8 -0.37,-4.66 -1.13,-5.6 -0.76,-0.94 -2.22,-1.27 -4.35,-1 l -5.51,0.68 -0.06,31.71 z"
         id="path864"
         style="fill:url(#linearGradient923);stroke:none" />
      <path
         class="cls-3"
         d="m 465.4,490.45 c 0.05,-9 2.09,-15.72 6.15,-20.05 4.06,-4.33 10.3,-6.44 18.71,-6.44 a 27.16,27.16 0 0 1 12,2.49 16.13,16.13 0 0 1 7.49,7.06 22,22 0 0 1 1.46,3.59 29.73,29.73 0 0 1 0.93,4.38 51,51 0 0 1 0.48,5.83 c 0.07,2.21 0.1,4.89 0.08,8.06 q -0.15,21.54 -0.29,43.08 0,5.06 -0.12,8.22 a 41.91,41.91 0 0 1 -0.42,5.38 A 22.76,22.76 0 0 1 511,556 c -0.4,1.16 -0.94,2.5 -1.64,4 a 19.93,19.93 0 0 1 -8,8.52 39,39 0 0 1 -14.09,4.91 c -14.56,2.56 -21.89,-4.26 -22.06,-21 z m 29.32,1.89 q 0,-4.72 -1.24,-6.68 -1.24,-1.96 -4.37,-1.87 c -3.95,0.11 -5.94,3 -6,8.61 l -0.3,50.25 q 0,6.93 1.17,9.24 c 0.8,1.54 2.36,2.14 4.67,1.82 3.77,-0.53 5.68,-3.63 5.71,-9.34 z"
         id="path866"
         style="fill:url(#linear-gradient-2);stroke:none" />
      <path
         class="cls-4"
         d="m 520.52,465.82 h 17.91 l -0.51,80.3 q 6.71,-0.6 13.43,-1.13 0,9.15 -0.1,18.31 -15.72,1.51 -31.39,3.56 z"
         id="path868"
         style="fill:url(#linear-gradient-3);stroke:none" />
      <path
         class="cls-5"
         d="m 556.33,465.74 h 17.91 q -0.19,38.83 -0.38,77.69 6.74,-0.39 13.46,-0.71 0,8.91 -0.07,17.81 -15.75,0.9 -31.48,2.33 0.29,-48.56 0.56,-97.12 z"
         id="path870"
         style="display:inline;fill:url(#linear-gradient-4)" />
      <path
         class="cls-6"
         d="m 597.1,523.78 q -8.18,-28.81 -16.29,-58.07 h 17.52 q 4.06,16.85 8.15,33.56 4.24,-16.83 8.47,-33.57 h 17.39 q -8.6,28.94 -17.25,58.08 0,17.79 -0.08,35.59 -9,0.24 -18,0.66 z"
         id="path872"
         style="display:inline;fill:url(#linear-gradient-5);stroke:none" />
      <path
         class="cls-7"
         d="m 631.05,465.68 h 16.49 q 3,25.19 6,50.41 4.63,-25.17 9.22,-50.41 H 677 l 7.65,50.94 q 3.52,-25.38 7,-50.93 h 16.62 q -7.49,47.91 -15.07,94.82 -8.57,-0.49 -17.12,-0.82 -3.64,-28 -7.27,-55.76 -4,27.7 -8,55.29 -8.12,-0.19 -16.23,-0.23 -6.81,-46.66 -13.53,-93.31 z"
         id="path874"
         style="fill:url(#linear-gradient-6);stroke:none" />
      <path
         class="cls-8"
         d="m 711.54,487.17 c 0,-7.87 2,-13.68 6,-17.48 4,-3.8 10.2,-5.69 18.61,-5.69 a 28.09,28.09 0 0 1 12.06,2.39 16.18,16.18 0 0 1 7.58,7 22.07,22.07 0 0 1 1.51,3.58 31.3,31.3 0 0 1 1,4.36 50.84,50.84 0 0 1 0.56,5.78 q 0.15,3.29 0.18,8 0.13,21.3 0.28,42.62 c 0,3.32 0,6 0,8.11 A 42.28,42.28 0 0 1 759,551 a 19.21,19.21 0 0 1 -0.88,3.67 32.54,32.54 0 0 1 -1.59,3.58 13,13 0 0 1 -7.89,6.28 c -3.73,1.25 -8.44,1.54 -14.13,1 -14.66,-1.53 -22.18,-9.37 -22.51,-24 q -0.26,-27.22 -0.46,-54.36 z m 29.46,3.58 q 0,-4.46 -1.33,-6.38 -1.33,-1.92 -4.39,-2 -5.94,-0.11 -5.89,7.61 l 0.28,46.05 q 0,6.34 1.28,8.71 c 0.82,1.58 2.4,2.48 4.73,2.68 3.79,0.33 5.66,-2.19 5.63,-7.59 Q 741.12,515.32 741,490.75 Z"
         id="path876"
         style="fill:url(#linear-gradient-7);stroke:none" />
      <path
         class="cls-9"
         d="m 766.46,488.57 c -0.06,-8.34 1.92,-14.48 5.93,-18.51 C 776.4,466.03 782.61,464 791,464 a 26.16,26.16 0 0 1 12.06,2.59 16.69,16.69 0 0 1 7.58,7.57 26,26 0 0 1 1.5,3.88 36.83,36.83 0 0 1 1,4.74 c 0.26,1.81 0.44,3.91 0.54,6.28 0.1,2.37 0.16,5.27 0.17,8.67 L 814.1,544 c 0,3.62 0,6.55 0,8.81 a 46.63,46.63 0 0 1 -0.36,5.66 20.79,20.79 0 0 1 -0.87,4 36.92,36.92 0 0 1 -1.58,3.81 12.31,12.31 0 0 1 -7.84,6.42 c -3.71,1.17 -8.39,1.23 -14,0.29 -14.57,-2.45 -22.06,-11.18 -22.42,-26.73 q -0.32,-28.9 -0.57,-57.69 z m 29.37,4.23 c 0,-3.2 -0.46,-5.5 -1.32,-6.88 a 5,5 0 0 0 -4.39,-2.15 q -5.93,-0.18 -5.88,8.08 0.16,24.64 0.32,49.3 c 0,4.52 0.45,7.64 1.28,9.38 a 5.62,5.62 0 0 0 4.71,3.07 c 3.77,0.52 5.63,-2.1 5.6,-7.92 Q 796,519.23 795.83,492.8 Z"
         id="path878"
         style="fill:url(#linear-gradient-8);stroke:none" />
      <path
         class="cls-10"
         d="m 820.66,466 25.37,0.09 c 2.06,0 3.8,0.05 5.21,0.11 a 33.19,33.19 0 0 1 3.74,0.35 13.77,13.77 0 0 1 2.9,0.77 25.55,25.55 0 0 1 2.83,1.37 10.36,10.36 0 0 1 5,6.61 q 1.42,4.72 1.42,14.65 v 72.15 c 0,2.17 0,4 -0.07,5.55 a 36.65,36.65 0 0 1 -0.31,4 21.62,21.62 0 0 1 -0.7,3.17 c -0.3,1 -0.66,2 -1.08,3 a 8.22,8.22 0 0 1 -4.44,5.06 c -0.85,0.36 -1.61,0.65 -2.29,0.88 a 6.41,6.41 0 0 1 -2.35,0.28 25.45,25.45 0 0 1 -3.18,-0.42 c -1.23,-0.23 -2.73,-0.56 -4.51,-1 q -13.49,-3.1 -27.05,-5.81 z M 844,560.48 c 2.13,0.39 3.63,-0.06 4.53,-1.38 0.9,-1.32 1.33,-3.74 1.32,-7.27 l -0.12,-56.65 q 0,-4.46 -1.17,-6.09 -1.17,-1.63 -4.5,-1.76 l -5.65,-0.25 q 0.11,36.21 0.23,72.43 z"
         id="path880"
         style="fill:url(#linear-gradient-9);stroke:none" />
    </g>
    <g
       id="g93"
       transform="matrix(1,0,0,1.0984549,3.5655044,-46.872769)">
      <path
         class="cls-11"
         d="m 829.55349,337.97327 q -1.75658,5.97277 -4.08507,11.76519 c -1.02126,2.54612 -2.13786,5.06043 -3.32254,7.54288 a 198.18089,154.40106 0 0 1 -371.2113,0.53045 c -1.36168,-2.65223 -2.47828,-5.30443 -3.58124,-8.07333 q -2.35572,-5.79242 -4.08508,-11.76519 l 0.62638,-0.14853 c 55.01242,-13.05948 118.82137,-20.68723 186.96053,-21.07979 h 10.28078 c 68.22084,0.33949 132.0843,7.91421 187.20564,20.95247 z"
         id="path882"
         style="fill:url(#linear-gradient-10);stroke-width:1.20194" />
      <path
         class="cls-12"
         d="m 453.93031,348.01985 a 489.52885,381.38783 0 0 1 175.65848,-20.15682 152.10118,118.50076 0 0 1 -78.97824,31.82652 c -48.04053,6.70477 -85.21479,-6.9912 -96.68024,-11.6697 z"
         id="path884"
         style="fill:url(#linear-gradient-11);stroke-width:1.20194" />
      <path
         class="cls-13"
         d="m 645.47974,327.91607 a 387.27927,301.72605 0 0 1 175.54956,20.74029 152.21011,118.58562 0 0 1 -87.4752,12.44414 c -48.43545,-4.52994 -78.84206,-26.08712 -88.07436,-33.18443 z"
         id="path886"
         style="fill:url(#linear-gradient-12);stroke-width:1.20194" />
      <path
         class="cls-14"
         d="m 829.55349,337.97327 q -1.75658,5.97277 -4.08507,11.76519 c -55.73411,-12.91097 -120.27841,-20.28411 -189.07115,-20.28411 -68.79276,0 -133.33704,7.37314 -189.05756,20.28411 q -2.35571,-5.79242 -4.08506,-11.76519 c 56.64645,-13.50507 122.66135,-21.2177 193.15622,-21.2177 70.49489,0 136.49616,7.71263 193.14262,21.2177 z"
         id="path888"
         style="stroke-width:1.20194" />
      <path
         class="cls-15"
         d="m 447.84353,341.55906 c 1.60681,-0.28643 3.70382,0.97602 5.01104,1.54888 a 16.163304,12.592695 0 0 0 5.6238,1.8141 c 4.3302,0.42439 6.4272,-2.90682 8.29271,-5.30439 0.65363,-0.85933 1.64765,-2.54615 3.11827,-2.59918 1.72937,0 3.84,1.38975 5.24254,2.04751 3.48594,1.64435 7.24421,2.66281 10.34887,0 a 47.659275,37.130945 0 0 0 3.58125,-4.01019 c 0.7217,-0.83806 1.64766,-2.0687 3.11828,-1.82467 1.93362,0.30764 3.74465,1.64434 5.3787,2.45062 a 10.185468,7.9354131 0 0 0 5.44678,1.58074 c 4.15314,0 6.15484,-3.70251 8.34717,-5.88792 0.9668,-0.9654 1.81105,-1.80351 3.43147,-1.26247 a 36.615941,28.527175 0 0 1 5.36508,2.76891 8.6195205,6.7153964 0 0 0 5.29698,1.37917 7.5165486,5.8560804 0 0 0 4.79316,-2.36577 c 1.36169,-1.26246 2.45104,-2.71588 3.94891,-3.89345 1.49785,-1.17757 2.13784,-0.90176 3.66294,-0.15914 3.11828,1.52768 6.52253,4.7952 10.66209,3.88283 4.13954,-0.91235 5.37867,-4.4557 8.44248,-6.26981 1.4434,-0.85932 2.83232,0.0953 4.08509,0.82749 a 37.201469,28.983354 0 0 0 5.21529,3.04473 c 4.16677,1.69741 7.17611,-0.3713 9.8178,-2.79012 0.98043,-0.90177 2.43743,-2.74769 4.08508,-3.03412 1.64765,-0.28644 3.14552,1.20938 4.0851,1.86714 2.91401,1.98386 6.44079,4.5406 10.44417,2.6416 a 22.767517,17.73798 0 0 0 4.64338,-3.45848 c 0.88509,-0.75323 2.31489,-2.2809 3.78552,-2.12176 1.75656,0.22279 3.4723,1.99446 4.69782,2.85377 a 11.873969,9.2509098 0 0 0 5.11998,2.52491 c 4.28934,0.75324 7.25783,-2.85377 9.94036,-4.79521 1.3617,-0.98662 2.30126,-1.47461 3.90806,-0.56225 1.6068,0.91236 2.99573,2.24906 4.56169,3.30994 a 7.9931414,6.2273897 0 0 0 5.25613,1.8884 8.3880326,6.5350459 0 0 0 5.06551,-2.0051 42.893349,33.417848 0 0 1 4.71144,-3.3736 c 1.5251,-0.76382 2.54637,0 3.71743,0.85932 2.72339,2.00507 5.73271,5.56963 10.07654,4.61485 a 12.745452,9.929875 0 0 0 4.94295,-2.58856 c 1.17103,-0.83811 2.87316,-2.55673 4.56165,-2.74768 1.68851,-0.19097 3.11828,1.60192 4.0851,2.37636 a 19.499454,15.191861 0 0 0 4.47996,3.25692 c 4.08509,1.81413 7.5438,-0.86993 10.43058,-2.83256 0.98043,-0.66835 2.61445,-2.0475 4.08507,-1.71864 1.47063,0.32888 3.02297,2.19602 4.08509,3.1296 2.72338,2.49308 5.8689,4.38146 10.00845,2.5037 a 54.100088,42.148926 0 0 0 4.99741,-2.99169 c 1.27999,-0.76384 2.53276,-1.5701 3.97615,-0.67896 2.98211,1.84592 4.46636,5.47414 8.48334,6.238 4.01701,0.76384 7.50295,-2.51431 10.66208,-4.01015 1.64763,-0.77443 2.43741,-0.63652 3.73104,0.46679 1.29359,1.10329 2.45104,2.57796 3.79912,3.79797 a 7.1216575,5.5484238 0 0 0 4.80678,2.23845 9.2186658,7.1821854 0 0 0 5.44676,-1.59131 29.058542,22.639267 0 0 1 5.07913,-2.62038 c 1.60678,-0.50921 2.53274,0.50921 3.43145,1.44279 2.12426,2.17482 4.22125,5.80305 8.36081,5.73939 a 11.111419,8.6568142 0 0 0 5.62379,-1.78229 c 1.47065,-0.75322 3.33615,-2.12176 5.16082,-2.30211 1.47064,-0.13793 2.45106,1.30489 3.15914,2.12176 a 35.499353,27.657249 0 0 0 3.44507,3.84042 c 3.25446,2.71584 7.10805,1.40034 10.59399,-0.27584 1.26637,-0.60471 3.39061,-2.02631 4.99741,-1.85656 1.3617,0.14852 2.41019,1.90959 3.03656,2.72648 1.89277,2.48247 4.0851,5.73939 8.42891,5.16651 a 17.702016,13.791493 0 0 0 5.54209,-1.88839 c 1.23913,-0.54105 3.24083,-1.73983 4.77954,-1.46401 2.55998,0.44557 3.64933,-2.6204 1.08936,-3.07657 -4.33019,-0.76384 -7.58464,2.19605 -11.39737,3.18267 -1.63406,0.40314 -2.35574,-0.30767 -3.24086,-1.32613 -1.14381,-1.3473 -2.04252,-2.80075 -3.28166,-4.09498 a 6.5633631,5.1134611 0 0 0 -4.62976,-2.36579 9.7088749,7.5641035 0 0 0 -5.44678,1.33672 c -1.74297,0.78504 -3.52679,1.98385 -5.51487,2.35515 -1.57955,0.29706 -2.47826,-0.93358 -3.26805,-1.83533 -1.97445,-2.29149 -4.08507,-5.83483 -8.17017,-5.73938 a 11.315675,8.8159469 0 0 0 -5.62378,1.85655 c -1.36171,0.7108 -3.39062,2.18544 -5.16082,2.24907 -1.42979,0 -2.4919,-1.41096 -3.21362,-2.21723 a 27.914719,21.748124 0 0 0 -3.90804,-3.90407 c -3.47232,-2.46126 -7.13527,-0.88052 -10.38973,0.94421 -1.19828,0.67894 -3.33615,2.29148 -4.95655,2.12173 -1.62043,-0.16972 -2.7234,-1.95201 -3.52678,-2.7795 -2.27404,-2.387 -5.01104,-5.23017 -9.314,-3.9677 a 22.345391,17.409107 0 0 0 -5.44677,2.7689 c -1.06212,0.61529 -2.85957,1.94142 -4.28935,1.464 -1.42976,-0.47738 -2.84591,-2.23846 -3.88082,-3.24628 a 12.255244,9.5479566 0 0 0 -4.42549,-3.09779 c -4.08509,-1.35792 -7.5438,1.73985 -10.45781,3.46909 -1.28,0.76385 -2.54637,1.59134 -4.08508,0.74263 a 33.59298,26.172011 0 0 1 -4.19401,-3.58579 9.2595164,7.214012 0 0 0 -4.53446,-2.45065 6.8084679,5.3044205 0 0 0 -5.44678,1.26247 c -1.75658,1.00785 -3.24082,2.29149 -5.05186,3.25691 -1.55234,0.82749 -2.38298,0.74261 -3.74468,-0.25461 -2.72337,-1.97326 -5.35144,-5.68634 -9.66802,-5.35748 -4.31656,0.32888 -6.23654,4.12685 -9.98122,5.30441 -1.52508,0.49864 -2.914,-0.86991 -3.86719,-1.63374 a 29.221946,22.766573 0 0 0 -4.75231,-3.44787 c -4.00339,-1.98386 -7.39399,0.38191 -10.1991,2.53549 -0.99404,0.76387 -2.72338,2.47187 -4.23485,2.45065 -1.5115,-0.0213 -3.2817,-1.80348 -4.28935,-2.57794 -2.92764,-2.23846 -6.38634,-4.40268 -10.38971,-2.22787 a 37.378489,29.121269 0 0 0 -4.76593,3.52215 c -1.02127,0.79564 -2.23319,1.88836 -3.74467,1.3155 -3.6221,-1.34732 -5.74634,-5.18773 -10.17185,-5.30442 -4.42549,-0.11671 -6.71315,3.5858 -9.53185,5.49536 -1.49786,1.06088 -2.39657,0.84873 -3.96252,0 -1.56596,-0.84872 -3.17275,-2.19601 -4.90211,-3.18265 a 6.6314479,5.1665054 0 0 0 -5.44676,-1.13515 10.158235,7.9141955 0 0 0 -4.67062,2.67344 27.152171,21.154031 0 0 1 -4.017,3.39482 c -1.48423,0.81689 -2.87316,-0.14852 -4.08509,-0.88052 -2.94124,-1.77169 -6.50887,-4.83764 -10.58036,-3.29937 a 13.439916,10.470926 0 0 0 -4.3438,3.18265 c -0.9668,0.94421 -2.30126,2.76894 -3.88081,3.18269 -1.57957,0.41373 -3.44509,-1.06091 -4.54806,-1.75046 a 20.112215,15.669258 0 0 0 -5.20167,-2.58857 c -4.39827,-1.20941 -7.16249,1.92019 -9.43653,4.31779 -0.8034,0.82749 -2.06978,2.5249 -3.6085,2.49308 -1.53871,-0.0319 -3.58123,-1.50646 -4.83401,-2.20664 -3.377,-1.88836 -7.08081,-3.25692 -10.49866,-0.63653 a 34.791271,27.105588 0 0 0 -3.63572,3.74493 c -0.76255,0.82747 -1.79743,2.21723 -3.2953,2.0475 -1.91998,-0.23338 -3.79913,-1.62314 -5.37868,-2.4082 a 10.675677,8.3173313 0 0 0 -5.44678,-1.66559 c -4.22125,0 -6.23654,3.75554 -8.29272,6.03641 -0.83062,0.92297 -1.64765,1.87781 -3.21358,1.53828 -2.00169,-0.44556 -3.75827,-1.62313 -5.55572,-2.4082 a 8.7693068,6.8320934 0 0 0 -5.77357,-1.18819 7.2033592,5.6120769 0 0 0 -4.20765,2.44005 c -1.23914,1.30489 -2.12423,2.77952 -3.2953,4.1056 -1.02126,1.15639 -1.77018,1.62316 -3.5268,1.0609 -3.60848,-1.0609 -6.89014,-3.77676 -11.05693,-3.03412 -2.55998,0.45618 -1.47063,3.53275 1.08936,3.07656 z"
         id="path890"
         style="stroke-width:1.20194" />
      <g
         class="cls-16"
         clip-path="url(#clip-path)"
         id="g898"
         transform="matrix(1.3616936,0,0,1.060884,-235.08664,-6.3154567)">
        <path
           class="cls-17"
           d="m 507,371 v 48 h 267 v -48 z m 5,43 v -38 h 46 v 38 z m 50.5,0 V 376 H 604 v 38 z m 46,0 V 376 H 649 v 38 z m 45,0 V 376 H 694 v 38 z m 45,0 V 376 H 740 v 38 z m 70.5,0 H 744.5 V 376 H 769 Z"
           id="path892"
           style="stroke:none" />
        <path
           class="cls-17"
           d="m 832.48,368 h -7 v -6 h 7 z m -13,0 h -7 v -6 h 7 z m -13,0 h -7 v -6 h 7 z m -13,0 h -7 v -6 h 7 z m -13,0 h -7 v -6 h 7 z m -13,0 h -7 v -6 h 7 z m -13,0 h -7 v -6 h 7 z m -13,0 h -7 v -6 h 7 z m -13,0 h -7 v -6 h 7 z m -13,0 h -7 v -6 h 7 z m -13,0 h -7 v -6 h 7 z m -13,0 h -7 v -6 h 7 z m -13,0 h -7 v -6 h 7 z m -13,0 h -7 v -6 h 7 z m -13,0 h -7 v -6 h 7 z m -13,0 h -7 v -6 h 7 z m -13,0 h -7 v -6 h 7 z m -13,0 h -7 v -6 h 7 z m -13,0 h -7 v -6 h 7 z m -13,0 h -7 v -6 h 7 z m -13,0 h -7 v -6 h 7 z m -13,0 h -7 v -6 h 7 z m -13,0 h -7 v -6 h 7 z m -13,0 h -7 v -6 h 7 z m -13,0 h -7 v -6 h 7 z m -13,0 h -7 v -6 h 7 z m -13,0 h -7 v -6 h 7 z m -13,0 h -7 v -6 h 7 z m -13,0 h -7 v -6 h 7 z m -13,0 h -7 v -6 h 7 z"
           id="path894"
           style="stroke:none" />
        <path
           class="cls-17"
           d="m 832,429 h -7 v -6 h 7 z m -13,0 h -7 v -6 h 7 z m -13,0 h -7 v -6 h 7 z m -13,0 h -7 v -6 h 7 z m -13,0 h -7 v -6 h 7 z m -13,0 h -7 v -6 h 7 z m -13,0 h -7 v -6 h 7 z m -13,0 h -7 v -6 h 7 z m -13,0 h -7 v -6 h 7 z m -13,0 h -7 v -6 h 7 z m -13,0 h -7 v -6 h 7 z m -13,0 h -7 v -6 h 7 z m -13,0 h -7 v -6 h 7 z m -13,0 h -7 v -6 h 7 z m -13,0 h -7 v -6 h 7 z m -13,0 h -7 v -6 h 7 z m -13,0 h -7 v -6 h 7 z m -13,0 h -7 v -6 h 7 z m -13,0 h -7 v -6 h 7 z m -13,0 h -7 v -6 h 7 z m -13,0 h -7 v -6 h 7 z m -13,0 h -7 v -6 h 7 z m -13,0 h -7 v -6 h 7 z m -13,0 h -7 v -6 h 7 z m -13,0 h -7 v -6 h 7 z m -13,0 h -7 v -6 h 7 z m -13,0 h -7 v -6 h 7 z m -13,0 h -7 v -6 h 7 z m -13,0 h -7 v -6 h 7 z m -13,0 h -7 v -6 h 7 z"
           id="path896"
           style="stroke:none" />
      </g>
      <path
         class="cls-18"
         d="m 630.2424,320.43685 c -13.07226,18.35329 -51.1452,32.69644 -96.95257,34.5636 -36.88828,1.50647 -69.89575,-5.44234 -89.42243,-17.18632 l -0.62637,0.14852 q 1.75659,5.97276 4.08507,11.76521 c 1.10298,2.72647 2.28766,5.42111 3.58126,8.0733 20.77944,9.82381 50.99542,15.34041 84.22075,13.98245 53.24222,-2.12175 96.40791,-21.28131 104.65976,-44.55712 z"
         id="path900"
         style="stroke:none;stroke-width:1.20194" />
      <path
         class="cls-18"
         d="m 828.31435,337.68681 c -19.48582,11.82887 -52.61585,18.84133 -89.66751,17.32423 -45.46695,-1.85654 -83.29481,-15.99812 -96.68026,-34.14983 l -5.66465,3.81917 1.87916,1.3049 -1.87916,-1.3049 -1.79743,1.2094 1.79743,-1.2094 -5.44676,-3.8298 c 1.97447,26.08714 48.01331,48.54608 106.00784,50.92243 33.82447,1.37917 64.53067,-4.36022 85.33734,-14.51289 1.18468,-2.48246 2.30125,-4.99675 3.32254,-7.54289 q 2.35573,-5.79242 4.08507,-11.76518 z"
         id="path902"
         style="stroke:none;stroke-width:1.20194" />
    </g>
    <g
       id="g80"
       transform="matrix(1,0,0,1.0984549,3.8829491,-35.88822)">
      <path
         class="cls-19"
         d="m 617.43488,267.06237 a 46.393867,56.672427 0 0 0 7.01726,28.43169 c 1.29403,2.22786 2.60541,4.24354 3.78654,6.04704 a 33.002001,40.313595 0 0 1 -5.72323,-29.30162 c 2.03221,-15.38282 11.19463,-24.05024 13.33975,-25.98104 a 1.5024596,1.8353296 0 0 1 0.18237,0.18033 v -26.9995 c -1.98012,1.87777 -19.228,18.88373 -18.60269,47.6231 z"
         id="path904"
         style="stroke-width:0.95989" />
      <path
         class="cls-19"
         d="m 636.04625,272.36678 c -0.86847,0.92296 -9.11028,9.87683 -7.77282,23.33945 a 21.329715,26.055313 0 0 0 6.07931,15.05396 c 0.86848,1.06087 1.4764,1.66558 1.67615,1.87776 z"
         id="path906"
         style="stroke-width:0.95989" />
      <path
         class="cls-20"
         d="m 639.16409,308.85058 a 21.234183,25.938619 0 0 0 4.75923,-14.20523 c 0.86847,-13.12311 -7.03464,-21.47231 -7.81626,-22.27857 h -0.0434 v 40.3136 h 0.0434 c 1.0769,-1.22002 2.08434,-2.5143 3.05703,-3.8298 z"
         id="path908"
         style="stroke-width:0.95989" />
      <path
         class="cls-20"
         d="m 647.94436,268.05959 c 2.90069,13.57932 -0.59057,28.39987 -8.86713,39.7407 a 22.580317,27.582988 0 0 1 -2.99622,3.74494 c 2.04959,-2.12176 18.39426,-19.25503 17.79503,-47.62308 -0.55583,-26.52209 -15.51963,-42.21257 -17.79503,-44.55716 h -0.0434 v 26.95709 a 33.870475,41.374479 0 0 1 11.90678,21.73751 z"
         id="path910"
         style="stroke-width:0.95989" />
      <g
         id="g65"
         transform="matrix(0.63778939,0,0,1,230.21963,-12)">
        <path
           class="cls-20"
           d="M 686.77992,241.93142 C 684.28801,196.83325 642.25255,171.128 636.39727,167.66953 h -0.068 v 31.82656 h 0.068 c 6.39995,3.78732 33.82445,20.90999 39.4891,50.9224 8.03398,42.55206 -35.13168,71.48238 -39.25762,74.12398 5.69188,-3.43727 52.87456,-33.18446 50.15117,-82.61105 z"
           id="path912"
           style="stroke-width:1.20194" />
        <path
           class="cls-19"
           d="m 586.0146,241.93142 c 2.4919,-45.09817 44.52738,-70.80342 50.38267,-74.26189 v 0 31.82656 0 c -6.39997,3.78732 -33.82448,20.90999 -39.48913,50.9224 -8.034,42.55206 35.13171,71.48238 39.25765,74.12398 -5.69189,-3.43727 -52.87458,-33.18446 -50.15119,-82.61105 z"
           id="path914"
           style="display:inline;stroke-width:1.20194" />
      </g>
    </g>
  </g>
</svg>
