<svg xmlns="http://www.w3.org/2000/svg" xmlns:xlink="http://www.w3.org/1999/xlink" id="Layer_1" x="0" y="0" enable-background="new 0 0 512 512" version="1.1" viewBox="0 0 512 512" xml:space="preserve"><circle cx="256" cy="256" r="256" fill="#88C5CC"/><path fill="#CCC" d="M100,396c-15.436,0-28-12.564-28-28V140c0-15.436,8.564-24,24-24h316c15.436,0,28,12.564,28,28v224	c0,15.436-12.564,28-28,28H100z"/><circle cx="95.812" cy="140" r="8" fill="#CC584C"/><circle cx="119.812" cy="140" r="8" fill="#FFD464"/><circle cx="143.812" cy="140" r="8" fill="#198058"/><g><path fill="#F5F5F5" d="M403.812,144c0,2.2-1.8,4-4,4h-232c-2.2,0-4-1.8-4-4v-8c0-2.2,1.8-4,4-4h232c2.2,0,4,1.8,4,4V144z"/><path fill="#F5F5F5" d="M424,372c0,4.4-3.6,8-8,8H96c-4.4,0-8-3.6-8-8V172c0-4.4,3.6-8,8-8h320c4.4,0,8,3.6,8,8V372z"/></g><g><path fill="#406A80" d="M160,356c0,4.4-3.6,8-8,8h-40c-4.4,0-8-3.6-8-8V188c0-4.4,3.6-8,8-8h40c4.4,0,8,3.6,8,8V356z"/><path fill="#406A80" d="M400,180c4.4,0,8,3.6,8,8v40c0,4.408-3.6,8-8,8H184c-4.4,0-8-3.592-8-8v-40c0-4.4,3.6-8,8-8H400z"/></g><g><rect width="232" height="8" x="176" y="248" fill="#B3B3B3"/><rect width="232" height="8" x="176" y="260" fill="#B3B3B3"/><rect width="232" height="8" x="176" y="272" fill="#B3B3B3"/><rect width="52" height="52" x="176" y="284" fill="#B3B3B3"/></g><rect width="52" height="52" x="236" y="284" fill="#E16B5A"/><g><rect width="52" height="52" x="296" y="284" fill="#B3B3B3"/><rect width="52" height="52" x="356" y="284" fill="#B3B3B3"/></g></svg>