<svg xmlns="http://www.w3.org/2000/svg" xmlns:xlink="http://www.w3.org/1999/xlink" id="Ñëîé_1" x="0" y="0" enable-background="new 0 0 1600 338.9" version="1.1" viewBox="0 0 1600 338.9" xml:space="preserve"><style type="text/css">.st0{display:none}.st1{display:inline}.st2{enable-background:new}.st3{fill:url(#SVGID_1_)}.st4{fill:url(#SVGID_2_)}.st5{fill:#fff}.st6{fill:url(#SVGID_3_)}.st7{fill:url(#SVGID_4_)}.st8{fill:url(#SVGID_5_)}.st9{fill:url(#SVGID_6_)}.st10{fill:url(#SVGID_7_)}.st11{fill:url(#SVGID_8_)}.st12{fill:url(#SVGID_9_)}.st13{fill:url(#SVGID_10_)}.st14{fill:url(#SVGID_11_)}.st15{fill:url(#SVGID_12_)}.st16{fill:url(#SVGID_13_)}.st17{fill:url(#SVGID_14_)}.st18{fill:url(#SVGID_15_)}.st19{fill:url(#SVGID_16_)}.st20{fill:url(#SVGID_17_)}.st21{fill:url(#SVGID_18_)}.st22{fill:url(#SVGID_19_)}.st23{fill:url(#SVGID_20_)}.st24{fill:url(#SVGID_21_)}.st25{fill:url(#SVGID_22_)}.st26{fill:url(#SVGID_23_)}.st27{fill:url(#SVGID_24_)}.st28{fill:url(#SVGID_25_)}.st29{fill:url(#SVGID_26_)}.st30{fill:url(#SVGID_27_)}.st31{fill:url(#SVGID_28_)}.st32{fill:url(#SVGID_29_)}</style><g><g><g class="st0"><g class="st1"><g><g class="st2"><linearGradient id="SVGID_1_" x1="1331.6" x2="1339.686" y1="1369.71" y2="1369.71" gradientTransform="matrix(1 0 0 -1 0 545.89)" gradientUnits="userSpaceOnUse"><stop offset="0" stop-color="#58258C"/><stop offset="1" stop-color="#FFF"/></linearGradient><path d="M1338-827.2c-0.5-0.3-0.9-0.3-1.2-0.1l-5.2,3c0.3-0.2,0.7-0.2,1.2,0.1c0.9,0.5,1.7,1.8,1.7,2.9 c0,0.5-0.2,0.9-0.5,1.1l5.2-3c0.3-0.2,0.5-0.6,0.5-1.1C1339.7-825.3,1338.9-826.6,1338-827.2z" class="st3"/><g><linearGradient id="SVGID_2_" x1="1331.115" x2="1334.489" y1="1368.062" y2="1368.062" gradientTransform="matrix(1 0 0 -1 0 545.89)" gradientUnits="userSpaceOnUse"><stop offset="0" stop-color="#58258C"/><stop offset="1" stop-color="#FFF"/></linearGradient><path d="M1332.8-824.1c0.9,0.5,1.7,1.8,1.7,2.9c0,1.1-0.8,1.5-1.7,1c-0.9-0.5-1.7-1.8-1.7-2.9 C1331.1-824.2,1331.9-824.7,1332.8-824.1z" class="st4"/></g></g></g><g><polygon points="1326.8 -839.3 1342.4 -828.2 1355.9 -821.8 1342.3 -814 1324.6 -838" class="st5"/></g><g><linearGradient id="SVGID_3_" x1="1362.5" x2="1375.838" y1="1382.14" y2="1382.14" gradientTransform="matrix(1 0 0 -1 0 545.89)" gradientUnits="userSpaceOnUse"><stop offset="0" stop-color="#FFF"/><stop offset="1" stop-color="#58258C"/></linearGradient><polygon points="1375.8 -835.9 1370.1 -830.7 1362.5 -840.7 1364.3 -841.8" class="st6"/></g><linearGradient id="SVGID_4_" x1="1355.3" x2="1348.327" y1="1357.496" y2="1368.121" gradientTransform="matrix(1 0 0 -1 0 545.89)" gradientUnits="userSpaceOnUse"><stop offset="0" stop-color="#58258C"/><stop offset="1" stop-color="#FFF"/></linearGradient><path d="M1375.8-835.9l-9.5,4.1c-0.7,0.3-1.5,0.7-2.2,1.1l-35.5,20.5c-0.4,0.2-0.7,0.5-0.9,0.9 c-0.1,0.1-0.1,0.2-0.2,0.3s-0.1,0.3-0.2,0.4c0,0.1-0.1,0.2-0.1,0.2c-0.1,0.1-0.1,0.2-0.2,0.3c0,0.1-0.1,0.2-0.1,0.2 c0,0.1-0.1,0.1-0.1,0.2c-0.2,0.4-0.5,0.8-0.7,1.2c0,0,0,0.1-0.1,0.1c-0.1,0.1-0.1,0.2-0.2,0.4c0,0.1-0.1,0.1-0.1,0.2 c-0.1,0.1-0.1,0.3-0.2,0.4l0,0l0,0c0,0-3.1,4-1.2,5.4c2,1.5,7.4-0.1,8.6-0.5c0.1,0,0.1,0,0.2-0.1c0.1,0,0.1,0,0.1,0l0,0 c0.1-0.1,0.2-0.1,0.4-0.2l36.3-22.6c1.2-0.7,2.3-1.6,3.4-2.6l5.9-5.5v-2.7L1375.8-835.9z" class="st7"/><linearGradient id="SVGID_5_" x1="1326.956" x2="1332.79" y1="1355.456" y2="1349.723" gradientTransform="matrix(1 0 0 -1 0 545.89)" gradientUnits="userSpaceOnUse"><stop offset="0" stop-color="#58258C"/><stop offset="1" stop-color="#151B4E"/></linearGradient><path d="M1334.1-805.3L1334.1-805.3c0.2-0.6-0.2-1.2-0.9-1.3c-3.6-0.3-5-1.5-5.6-2.4l0,0c-0.1,0.1-0.1,0.3-0.2,0.4 c0,0.1-0.1,0.2-0.1,0.2c-0.1,0.1-0.1,0.2-0.2,0.3c0,0.1-0.1,0.2-0.1,0.2c0,0.1-0.1,0.1-0.1,0.2c-0.1,0.2-0.2,0.4-0.3,0.6 l0.7,1.3c0.3,0.5,0.9,0.9,1.5,0.9l4.4,0.1C1333.5-804.6,1333.9-804.9,1334.1-805.3z" class="st8"/><g><g class="st2"><linearGradient id="SVGID_6_" x1="1359.445" x2="1367.531" y1="1352.61" y2="1352.61" gradientTransform="matrix(1 0 0 -1 0 545.89)" gradientUnits="userSpaceOnUse"><stop offset="0" stop-color="#58258C"/><stop offset="1" stop-color="#FFF"/></linearGradient><path d="M1365.8-810.1c-0.5-0.3-0.9-0.3-1.2-0.1l-5.2,3c0.3-0.2,0.7-0.2,1.2,0.1c0.9,0.5,1.7,1.8,1.7,2.9 c0,0.5-0.2,0.9-0.5,1.1l5.2-3c0.3-0.2,0.5-0.6,0.5-1.1C1367.5-808.3,1366.8-809.6,1365.8-810.1z" class="st9"/><g><linearGradient id="SVGID_7_" x1="1358.953" x2="1362.328" y1="1351.04" y2="1351.04" gradientTransform="matrix(1 0 0 -1 0 545.89)" gradientUnits="userSpaceOnUse"><stop offset="0" stop-color="#58258C"/><stop offset="1" stop-color="#FFF"/></linearGradient><path d="M1360.6-807.1c0.9,0.5,1.7,1.8,1.7,2.9c0,1.1-0.8,1.5-1.7,1c-0.9-0.5-1.7-1.8-1.7-2.9 C1359-807.2,1359.7-807.6,1360.6-807.1z" class="st10"/></g></g></g><g><linearGradient id="SVGID_8_" x1="1349.008" x2="1394.188" y1="1362.746" y2="1344.822" gradientTransform="matrix(1 0 0 -1 0 545.89)" gradientUnits="userSpaceOnUse"><stop offset="0" stop-color="#58258C"/><stop offset="1" stop-color="#FFF"/></linearGradient><path d="M1390.2-802.2l-2.2,1.3l-38.3-9.4c-1.2-0.3-1.5-1.9-0.4-2.6l9.8-5.7c0.5-0.3,1.1-0.2,1.5,0.1l10.4,7.3 L1390.2-802.2z" class="st11"/></g><g><g class="st2"><g><linearGradient id="SVGID_9_" x1="1376.45" x2="1379.81" y1="1389.04" y2="1389.04" gradientTransform="matrix(1 0 0 -1 0 545.89)" gradientUnits="userSpaceOnUse"><stop offset="0" stop-color="#58258C"/><stop offset="1" stop-color="#FFF"/></linearGradient><polygon points="1377 -842.2 1376.4 -842.5 1379.3 -844.1 1379.8 -843.8" class="st12"/></g><g><linearGradient id="SVGID_10_" x1="1370.1" x2="1376.971" y1="1382.34" y2="1382.34" gradientTransform="matrix(1 0 0 -1 0 545.89)" gradientUnits="userSpaceOnUse"><stop offset="0" stop-color="#58258C"/><stop offset="1" stop-color="#FFF"/></linearGradient><polygon points="1370.6 -830.4 1370.1 -830.7 1376.4 -842.5 1377 -842.2" class="st13"/></g><g><polygon points="1377 -842.2 1379.8 -843.8 1377.9 -834.7 1374 -832.4 1370.6 -830.4" class="st5"/></g></g></g><g><linearGradient id="SVGID_11_" x1="1372.2" x2="1391.121" y1="1375.79" y2="1375.79" gradientTransform="matrix(1 0 0 -1 0 545.89)" gradientUnits="userSpaceOnUse"><stop offset="0" stop-color="#58258C"/><stop offset="1" stop-color="#FFF"/></linearGradient><polygon points="1379 -834 1391.1 -826.8 1389.3 -825.8 1372.2 -830" class="st14"/></g><g><g><g><linearGradient id="SVGID_12_" x1="1335.838" x2="1336.685" y1="1368.102" y2="1368.102" gradientTransform="matrix(0.9995 -3.280000e-02 -3.280000e-02 -0.9995 47.2389 603.6953)" gradientUnits="userSpaceOnUse"><stop offset="0" stop-color="#58258C"/><stop offset="1" stop-color="#151B4E"/></linearGradient><path d="M1337.9-808.2c0.2-0.1,0.4,0,0.4,0.2v0.4c0,0.3-0.2,0.6-0.4,0.7c-0.2,0.1-0.4,0-0.4-0.2v-0.4 C1337.5-807.7,1337.7-808.1,1337.9-808.2z" class="st15"/></g><g><linearGradient id="SVGID_13_" x1="1337.284" x2="1338.132" y1="1368.952" y2="1368.952" gradientTransform="matrix(0.9995 -3.280000e-02 -3.280000e-02 -0.9995 47.2389 603.6953)" gradientUnits="userSpaceOnUse"><stop offset="0" stop-color="#58258C"/><stop offset="1" stop-color="#151B4E"/></linearGradient><path d="M1339.4-809.1c0.2-0.1,0.4,0,0.4,0.2v0.4c0,0.3-0.2,0.6-0.4,0.7c-0.2,0.1-0.4,0-0.4-0.2v-0.4 C1338.9-808.6,1339.1-809,1339.4-809.1z" class="st16"/></g><g><linearGradient id="SVGID_14_" x1="1338.733" x2="1339.579" y1="1369.806" y2="1369.806" gradientTransform="matrix(0.9995 -3.280000e-02 -3.280000e-02 -0.9995 47.2389 603.6953)" gradientUnits="userSpaceOnUse"><stop offset="0" stop-color="#58258C"/><stop offset="1" stop-color="#151B4E"/></linearGradient><path d="M1340.8-810c0.2-0.1,0.4,0,0.4,0.2v0.4c0,0.3-0.2,0.6-0.4,0.7c-0.2,0.1-0.4,0-0.4-0.2v-0.4 C1340.4-809.5,1340.5-809.8,1340.8-810z" class="st17"/></g><g><linearGradient id="SVGID_15_" x1="1340.179" x2="1341.025" y1="1370.659" y2="1370.659" gradientTransform="matrix(0.9995 -3.280000e-02 -3.280000e-02 -0.9995 47.2389 603.6953)" gradientUnits="userSpaceOnUse"><stop offset="0" stop-color="#58258C"/><stop offset="1" stop-color="#151B4E"/></linearGradient><path d="M1342.2-810.9c0.2-0.1,0.4,0,0.4,0.2v0.4c0,0.3-0.2,0.6-0.4,0.7c-0.2,0.1-0.4,0-0.4-0.2v-0.4 C1341.8-810.4,1342-810.7,1342.2-810.9z" class="st18"/></g><g><linearGradient id="SVGID_16_" x1="1341.626" x2="1342.472" y1="1371.413" y2="1371.413" gradientTransform="matrix(0.9995 -3.280000e-02 -3.280000e-02 -0.9995 47.2389 603.6953)" gradientUnits="userSpaceOnUse"><stop offset="0" stop-color="#58258C"/><stop offset="1" stop-color="#151B4E"/></linearGradient><path d="M1343.6-811.7c0.2-0.1,0.4,0,0.4,0.2v0.4c0,0.3-0.2,0.6-0.4,0.7c-0.2,0.1-0.4,0-0.4-0.2v-0.4 C1343.2-811.3,1343.4-811.6,1343.6-811.7z" class="st19"/></g><g><linearGradient id="SVGID_17_" x1="1343.073" x2="1343.919" y1="1372.266" y2="1372.266" gradientTransform="matrix(0.9995 -3.280000e-02 -3.280000e-02 -0.9995 47.2389 603.6953)" gradientUnits="userSpaceOnUse"><stop offset="0" stop-color="#58258C"/><stop offset="1" stop-color="#151B4E"/></linearGradient><path d="M1345-812.6c0.2-0.1,0.4,0,0.4,0.2v0.4c0,0.3-0.2,0.6-0.4,0.7c-0.2,0.1-0.4,0-0.4-0.2v-0.4 C1344.6-812.2,1344.8-812.5,1345-812.6z" class="st20"/></g><g><linearGradient id="SVGID_18_" x1="1344.52" x2="1345.367" y1="1373.12" y2="1373.12" gradientTransform="matrix(0.9995 -3.280000e-02 -3.280000e-02 -0.9995 47.2389 603.6953)" gradientUnits="userSpaceOnUse"><stop offset="0" stop-color="#58258C"/><stop offset="1" stop-color="#151B4E"/></linearGradient><path d="M1346.4-813.5c0.2-0.1,0.4,0,0.4,0.2v0.4c0,0.3-0.2,0.6-0.4,0.7c-0.2,0.1-0.4,0-0.4-0.2v-0.4 C1346-813,1346.2-813.4,1346.4-813.5z" class="st21"/></g><g><linearGradient id="SVGID_19_" x1="1345.968" x2="1346.814" y1="1373.97" y2="1373.97" gradientTransform="matrix(0.9995 -3.280000e-02 -3.280000e-02 -0.9995 47.2389 603.6953)" gradientUnits="userSpaceOnUse"><stop offset="0" stop-color="#58258C"/><stop offset="1" stop-color="#151B4E"/></linearGradient><path d="M1347.9-814.4c0.2-0.1,0.4,0,0.4,0.2v0.4c0,0.3-0.2,0.6-0.4,0.7c-0.2,0.1-0.4,0-0.4-0.2v-0.4 C1347.5-813.9,1347.6-814.3,1347.9-814.4z" class="st22"/></g><g><linearGradient id="SVGID_20_" x1="1347.415" x2="1348.26" y1="1374.824" y2="1374.824" gradientTransform="matrix(0.9995 -3.280000e-02 -3.280000e-02 -0.9995 47.2389 603.6953)" gradientUnits="userSpaceOnUse"><stop offset="0" stop-color="#58258C"/><stop offset="1" stop-color="#151B4E"/></linearGradient><path d="M1349.3-815.3c0.2-0.1,0.4,0,0.4,0.2v0.4c0,0.3-0.2,0.6-0.4,0.7c-0.2,0.1-0.4,0-0.4-0.2v-0.4 C1348.9-814.8,1349.1-815.1,1349.3-815.3z" class="st23"/></g></g><g><g><linearGradient id="SVGID_21_" x1="1357.312" x2="1358.159" y1="1373.842" y2="1373.842" gradientTransform="matrix(0.9999 -1.620000e-02 -1.620000e-02 -0.9999 23.0396 575.0501)" gradientUnits="userSpaceOnUse"><stop offset="0" stop-color="#58258C"/><stop offset="1" stop-color="#151B4E"/></linearGradient><path d="M1358.4-821.3c0.2-0.1,0.4,0,0.4,0.2v0.4c0,0.3-0.2,0.6-0.4,0.7c-0.2,0.1-0.4,0-0.4-0.2v-0.4 C1358-820.9,1358.1-821.2,1358.4-821.3z" class="st24"/></g><g><linearGradient id="SVGID_22_" x1="1358.759" x2="1359.607" y1="1374.719" y2="1374.719" gradientTransform="matrix(0.9999 -1.620000e-02 -1.620000e-02 -0.9999 23.0396 575.0501)" gradientUnits="userSpaceOnUse"><stop offset="0" stop-color="#58258C"/><stop offset="1" stop-color="#151B4E"/></linearGradient><path d="M1359.8-822.2c0.2-0.1,0.4,0,0.4,0.2v0.4c0,0.3-0.2,0.6-0.4,0.7c-0.2,0.1-0.4,0-0.4-0.2v-0.4 C1359.4-821.7,1359.6-822.1,1359.8-822.2z" class="st25"/></g><g><linearGradient id="SVGID_23_" x1="1360.207" x2="1361.053" y1="1375.596" y2="1375.596" gradientTransform="matrix(0.9999 -1.620000e-02 -1.620000e-02 -0.9999 23.0396 575.0501)" gradientUnits="userSpaceOnUse"><stop offset="0" stop-color="#58258C"/><stop offset="1" stop-color="#151B4E"/></linearGradient><path d="M1361.2-823.1c0.2-0.1,0.4,0,0.4,0.2v0.4c0,0.3-0.2,0.6-0.4,0.7c-0.2,0.1-0.4,0-0.4-0.2v-0.4 C1360.8-822.6,1361-822.9,1361.2-823.1z" class="st26"/></g><g><linearGradient id="SVGID_24_" x1="1361.654" x2="1362.5" y1="1376.372" y2="1376.372" gradientTransform="matrix(0.9999 -1.620000e-02 -1.620000e-02 -0.9999 23.0396 575.0501)" gradientUnits="userSpaceOnUse"><stop offset="0" stop-color="#58258C"/><stop offset="1" stop-color="#151B4E"/></linearGradient><path d="M1362.7-823.9c0.2-0.1,0.4,0,0.4,0.2v0.4c0,0.3-0.2,0.6-0.4,0.7c-0.2,0.1-0.4,0-0.4-0.2v-0.4 C1362.3-823.5,1362.4-823.8,1362.7-823.9z" class="st27"/></g><g><linearGradient id="SVGID_25_" x1="1363.101" x2="1363.947" y1="1377.249" y2="1377.249" gradientTransform="matrix(0.9999 -1.620000e-02 -1.620000e-02 -0.9999 23.0396 575.0501)" gradientUnits="userSpaceOnUse"><stop offset="0" stop-color="#58258C"/><stop offset="1" stop-color="#151B4E"/></linearGradient><path d="M1364.1-824.8c0.2-0.1,0.4,0,0.4,0.2v0.4c0,0.3-0.2,0.6-0.4,0.7c-0.2,0.1-0.4,0-0.4-0.2v-0.4 C1363.7-824.3,1363.9-824.6,1364.1-824.8z" class="st28"/></g><g><linearGradient id="SVGID_26_" x1="1364.547" x2="1365.393" y1="1378.026" y2="1378.026" gradientTransform="matrix(0.9999 -1.620000e-02 -1.620000e-02 -0.9999 23.0396 575.0501)" gradientUnits="userSpaceOnUse"><stop offset="0" stop-color="#58258C"/><stop offset="1" stop-color="#151B4E"/></linearGradient><path d="M1365.5-825.6c0.2-0.1,0.4,0,0.4,0.2v0.4c0,0.3-0.2,0.6-0.4,0.7c-0.2,0.1-0.4,0-0.4-0.2v-0.4 C1365.1-825.2,1365.3-825.5,1365.5-825.6z" class="st29"/></g><g><linearGradient id="SVGID_27_" x1="1365.994" x2="1366.841" y1="1378.902" y2="1378.902" gradientTransform="matrix(0.9999 -1.620000e-02 -1.620000e-02 -0.9999 23.0396 575.0501)" gradientUnits="userSpaceOnUse"><stop offset="0" stop-color="#58258C"/><stop offset="1" stop-color="#151B4E"/></linearGradient><path d="M1367-826.5c0.2-0.1,0.4,0,0.4,0.2v0.4c0,0.3-0.2,0.6-0.4,0.7c-0.2,0.1-0.4,0-0.4-0.2v-0.4 C1366.6-826,1366.7-826.4,1367-826.5z" class="st30"/></g><g><linearGradient id="SVGID_28_" x1="1367.442" x2="1368.289" y1="1379.779" y2="1379.779" gradientTransform="matrix(0.9999 -1.620000e-02 -1.620000e-02 -0.9999 23.0396 575.0501)" gradientUnits="userSpaceOnUse"><stop offset="0" stop-color="#58258C"/><stop offset="1" stop-color="#151B4E"/></linearGradient><path d="M1368.4-827.4c0.2-0.1,0.4,0,0.4,0.2v0.4c0,0.3-0.2,0.6-0.4,0.7c-0.2,0.1-0.4,0-0.4-0.2v-0.4 C1368-826.9,1368.2-827.2,1368.4-827.4z" class="st31"/></g><g><linearGradient id="SVGID_29_" x1="1368.889" x2="1369.735" y1="1380.556" y2="1380.556" gradientTransform="matrix(0.9999 -1.620000e-02 -1.620000e-02 -0.9999 23.0396 575.0501)" gradientUnits="userSpaceOnUse"><stop offset="0" stop-color="#58258C"/><stop offset="1" stop-color="#151B4E"/></linearGradient><path d="M1369.8-828.2c0.2-0.1,0.4,0,0.4,0.2v0.4c0,0.3-0.2,0.6-0.4,0.7c-0.2,0.1-0.4,0-0.4-0.2v-0.4 C1369.4-827.8,1369.6-828.1,1369.8-828.2z" class="st32"/></g></g></g></g></g></g></g><path d="M1599.9,245.1c-51.9,13.2-100.7,34-147.9,59c-21,11.1-42.1,22.1-65.4,27.8c-32.1,7.9-63.8,6.6-95.1-3.8	c-18.5-6.2-35.3-15.8-51.8-26.1c-15-9.4-30.1-18.7-45.3-27.7c-22.3-13.2-46.7-19.8-72.3-22.1c-21.6-2-43.2-2.8-64.9-1	c-20.3,1.7-40.5,4.4-60.7,7.1c-39.2,5.2-78.3,11.1-117.8,12c-24.7,0.6-49.2-1-73.1-7.8c-29-8.2-50.6-26.5-68.1-50.5	c-12.2-16.7-23.3-34.3-36.1-50.5c-20.4-25.7-45.6-44.8-75.9-57.3c-28.2-11.6-57.5-17-87.8-18.5c-32.7-1.6-65.2,1.2-97.8,3.2	c-23,1.5-46,3-69.1,4.4c-24.7,1.6-49.5,2.1-74.2,2.6c-27.3,0.6-53.1-5.8-78.3-15.4c-36.7-13.9-72-31.3-108.4-45.9	C74.6,20.4,38.7,8.7,1.8,0.1C1.2-0.1,0.6,0,0.1,0c0,144,0,191-0.1,335c0,3,0.4,4,3.8,4c530.8-0.1,1061.6-0.1,1592.4,0	c3.3,0,3.8-0.8,3.8-3.9C1599.9,272.7,1599.9,307.4,1599.9,245.1z" class="st5"/></svg>