<svg xmlns="http://www.w3.org/2000/svg" xmlns:xlink="http://www.w3.org/1999/xlink" id="Ñëîé_1" x="0" y="0" enable-background="new 0 0 1600 546" version="1.1" viewBox="0 0 1600 546" xml:space="preserve"><style type="text/css">.st0{display:none}.st1{display:inline}.st2{enable-background:new}.st3{fill:url(#SVGID_1_)}.st4{fill:url(#SVGID_2_)}.st5{fill:#fff}.st6{fill:url(#SVGID_3_)}.st7{fill:url(#SVGID_4_)}.st8{fill:url(#SVGID_5_)}.st9{fill:url(#SVGID_6_)}.st10{fill:url(#SVGID_7_)}.st11{fill:url(#SVGID_8_)}.st12{fill:url(#SVGID_9_)}.st13{fill:url(#SVGID_10_)}.st14{fill:url(#SVGID_11_)}.st15{fill:url(#SVGID_12_)}.st16{fill:url(#SVGID_13_)}.st17{fill:url(#SVGID_14_)}.st18{fill:url(#SVGID_15_)}.st19{fill:url(#SVGID_16_)}.st20{fill:url(#SVGID_17_)}.st21{fill:url(#SVGID_18_)}.st22{fill:url(#SVGID_19_)}.st23{fill:url(#SVGID_20_)}.st24{fill:url(#SVGID_21_)}.st25{fill:url(#SVGID_22_)}.st26{fill:url(#SVGID_23_)}.st27{fill:url(#SVGID_24_)}.st28{fill:url(#SVGID_25_)}.st29{fill:url(#SVGID_26_)}.st30{fill:url(#SVGID_27_)}.st31{fill:url(#SVGID_28_)}.st32{fill:url(#SVGID_29_)}</style><g><g><g class="st0"><g class="st1"><g><g class="st2"><linearGradient id="SVGID_1_" x1="1331.606" x2="1339.693" y1="-823.773" y2="-823.773" gradientUnits="userSpaceOnUse"><stop offset="0" stop-color="#58258C"/><stop offset="1" stop-color="#FFF"/></linearGradient><path d="M1338-827.2c-0.5-0.3-0.9-0.3-1.2-0.1l-5.2,3c0.3-0.2,0.7-0.2,1.2,0.1c0.9,0.5,1.7,1.8,1.7,2.9 c0,0.5-0.2,0.9-0.5,1.1l5.2-3c0.3-0.2,0.5-0.6,0.5-1.1C1339.7-825.3,1338.9-826.6,1338-827.2z" class="st3"/><g><linearGradient id="SVGID_2_" x1="1331.115" x2="1334.489" y1="-822.204" y2="-822.204" gradientUnits="userSpaceOnUse"><stop offset="0" stop-color="#58258C"/><stop offset="1" stop-color="#FFF"/></linearGradient><path d="M1332.8-824.1c0.9,0.5,1.7,1.8,1.7,2.9c0,1.1-0.8,1.5-1.7,1c-0.9-0.5-1.7-1.8-1.7-2.9 C1331.1-824.2,1331.9-824.7,1332.8-824.1z" class="st4"/></g></g></g><g><polygon points="1326.8 -839.3 1342.4 -828.2 1355.9 -821.8 1342.3 -814 1324.6 -838" class="st5"/></g><g><linearGradient id="SVGID_3_" x1="1362.508" x2="1375.846" y1="-836.26" y2="-836.26" gradientUnits="userSpaceOnUse"><stop offset="0" stop-color="#FFF"/><stop offset="1" stop-color="#58258C"/></linearGradient><polygon points="1375.8 -835.9 1370.1 -830.7 1362.5 -840.7 1364.3 -841.8" class="st6"/></g><linearGradient id="SVGID_4_" x1="1355.162" x2="1348.189" y1="-811.515" y2="-822.14" gradientUnits="userSpaceOnUse"><stop offset="0" stop-color="#58258C"/><stop offset="1" stop-color="#FFF"/></linearGradient><path d="M1375.8-835.9l-9.5,4.1c-0.7,0.3-1.5,0.7-2.2,1.1l-35.5,20.5c-0.4,0.2-0.7,0.5-0.9,0.9 c-0.1,0.1-0.1,0.2-0.2,0.3c-0.1,0.1-0.1,0.3-0.2,0.4c0,0.1-0.1,0.2-0.1,0.2c-0.1,0.1-0.1,0.2-0.2,0.3c0,0.1-0.1,0.2-0.1,0.2 c0,0.1-0.1,0.1-0.1,0.2c-0.2,0.4-0.5,0.8-0.7,1.2c0,0,0,0.1-0.1,0.1c-0.1,0.1-0.1,0.2-0.2,0.4c0,0.1-0.1,0.1-0.1,0.2 c-0.1,0.1-0.1,0.3-0.2,0.4v0l0,0c0,0-3.1,4-1.2,5.4c2,1.5,7.4-0.1,8.6-0.5c0.1,0,0.1,0,0.2-0.1c0.1,0,0.1,0,0.1,0s0,0,0,0 c0.1-0.1,0.2-0.1,0.4-0.2l36.3-22.6c1.2-0.7,2.3-1.6,3.4-2.6l5.9-5.5v-2.7L1375.8-835.9z" class="st7"/><linearGradient id="SVGID_5_" x1="1326.881" x2="1332.715" y1="-809.49" y2="-803.757" gradientUnits="userSpaceOnUse"><stop offset="0" stop-color="#58258C"/><stop offset="1" stop-color="#151B4E"/></linearGradient><path d="M1334.1-805.3L1334.1-805.3c0.2-0.6-0.2-1.2-0.9-1.3c-3.6-0.3-5-1.5-5.6-2.4c0,0,0,0,0,0 c-0.1,0.1-0.1,0.3-0.2,0.4c0,0.1-0.1,0.2-0.1,0.2c-0.1,0.1-0.1,0.2-0.2,0.3c0,0.1-0.1,0.2-0.1,0.2c0,0.1-0.1,0.1-0.1,0.2 c-0.1,0.2-0.2,0.4-0.3,0.6l0.7,1.3c0.3,0.5,0.9,0.9,1.5,0.9l4.4,0.1C1333.5-804.6,1333.9-804.9,1334.1-805.3z" class="st8"/><g><g class="st2"><linearGradient id="SVGID_6_" x1="1359.445" x2="1367.531" y1="-806.707" y2="-806.707" gradientUnits="userSpaceOnUse"><stop offset="0" stop-color="#58258C"/><stop offset="1" stop-color="#FFF"/></linearGradient><path d="M1365.8-810.1c-0.5-0.3-0.9-0.3-1.2-0.1l-5.2,3c0.3-0.2,0.7-0.2,1.2,0.1c0.9,0.5,1.7,1.8,1.7,2.9 c0,0.5-0.2,0.9-0.5,1.1l5.2-3c0.3-0.2,0.5-0.6,0.5-1.1C1367.5-808.3,1366.8-809.6,1365.8-810.1z" class="st9"/><g><linearGradient id="SVGID_7_" x1="1358.953" x2="1362.328" y1="-805.138" y2="-805.138" gradientUnits="userSpaceOnUse"><stop offset="0" stop-color="#58258C"/><stop offset="1" stop-color="#FFF"/></linearGradient><path d="M1360.6-807.1c0.9,0.5,1.7,1.8,1.7,2.9c0,1.1-0.8,1.5-1.7,1c-0.9-0.5-1.7-1.8-1.7-2.9 C1359-807.2,1359.7-807.6,1360.6-807.1z" class="st10"/></g></g></g><g><linearGradient id="SVGID_8_" x1="1349.039" x2="1394.219" y1="-816.933" y2="-799.009" gradientUnits="userSpaceOnUse"><stop offset="0" stop-color="#58258C"/><stop offset="1" stop-color="#FFF"/></linearGradient><path d="M1390.2-802.2l-2.2,1.3l-38.3-9.4c-1.2-0.3-1.5-1.9-0.4-2.6l9.8-5.7c0.5-0.3,1.1-0.2,1.5,0.1l10.4,7.3 L1390.2-802.2z" class="st11"/></g><g><g class="st2"><g><linearGradient id="SVGID_9_" x1="1376.45" x2="1379.81" y1="-843.126" y2="-843.126" gradientUnits="userSpaceOnUse"><stop offset="0" stop-color="#58258C"/><stop offset="1" stop-color="#FFF"/></linearGradient><polygon points="1377 -842.2 1376.4 -842.5 1379.3 -844.1 1379.8 -843.8" class="st12"/></g><g><linearGradient id="SVGID_10_" x1="1370.101" x2="1376.972" y1="-836.449" y2="-836.449" gradientUnits="userSpaceOnUse"><stop offset="0" stop-color="#58258C"/><stop offset="1" stop-color="#FFF"/></linearGradient><polygon points="1370.6 -830.4 1370.1 -830.7 1376.4 -842.5 1377 -842.2" class="st13"/></g><g><polygon points="1377 -842.2 1379.8 -843.8 1377.9 -834.7 1374 -832.4 1370.6 -830.4" class="st5"/></g></g></g><g><linearGradient id="SVGID_11_" x1="1372.201" x2="1391.122" y1="-829.91" y2="-829.91" gradientUnits="userSpaceOnUse"><stop offset="0" stop-color="#58258C"/><stop offset="1" stop-color="#FFF"/></linearGradient><polygon points="1379 -834 1391.1 -826.8 1389.3 -825.8 1372.2 -830" class="st14"/></g><g><g><g><linearGradient id="SVGID_12_" x1="1340.403" x2="1341.25" y1="-805.645" y2="-805.645" gradientTransform="matrix(0.9995 -3.280000e-02 3.280000e-02 0.9995 24.2283 41.6867)" gradientUnits="userSpaceOnUse"><stop offset="0" stop-color="#58258C"/><stop offset="1" stop-color="#151B4E"/></linearGradient><path d="M1337.9-808.2c0.2-0.1,0.4,0,0.4,0.2l0,0.4c0,0.3-0.2,0.6-0.4,0.7c-0.2,0.1-0.4,0-0.4-0.2l0-0.4 C1337.5-807.7,1337.7-808.1,1337.9-808.2z" class="st15"/></g><g><linearGradient id="SVGID_13_" x1="1341.849" x2="1342.697" y1="-806.481" y2="-806.481" gradientTransform="matrix(0.9995 -3.280000e-02 3.280000e-02 0.9995 24.2283 41.6867)" gradientUnits="userSpaceOnUse"><stop offset="0" stop-color="#58258C"/><stop offset="1" stop-color="#151B4E"/></linearGradient><path d="M1339.4-809.1c0.2-0.1,0.4,0,0.4,0.2l0,0.4c0,0.3-0.2,0.6-0.4,0.7c-0.2,0.1-0.4,0-0.4-0.2l0-0.4 C1338.9-808.6,1339.1-809,1339.4-809.1z" class="st16"/></g><g><linearGradient id="SVGID_14_" x1="1343.298" x2="1344.144" y1="-807.316" y2="-807.316" gradientTransform="matrix(0.9995 -3.280000e-02 3.280000e-02 0.9995 24.2283 41.6867)" gradientUnits="userSpaceOnUse"><stop offset="0" stop-color="#58258C"/><stop offset="1" stop-color="#151B4E"/></linearGradient><path d="M1340.8-810c0.2-0.1,0.4,0,0.4,0.2l0,0.4c0,0.3-0.2,0.6-0.4,0.7c-0.2,0.1-0.4,0-0.4-0.2l0-0.4 C1340.4-809.5,1340.5-809.8,1340.8-810z" class="st17"/></g><g><linearGradient id="SVGID_15_" x1="1344.744" x2="1345.59" y1="-808.151" y2="-808.151" gradientTransform="matrix(0.9995 -3.280000e-02 3.280000e-02 0.9995 24.2283 41.6867)" gradientUnits="userSpaceOnUse"><stop offset="0" stop-color="#58258C"/><stop offset="1" stop-color="#151B4E"/></linearGradient><path d="M1342.2-810.9c0.2-0.1,0.4,0,0.4,0.2l0,0.4c0,0.3-0.2,0.6-0.4,0.7c-0.2,0.1-0.4,0-0.4-0.2l0-0.4 C1341.8-810.4,1342-810.7,1342.2-810.9z" class="st18"/></g><g><linearGradient id="SVGID_16_" x1="1346.191" x2="1347.037" y1="-808.986" y2="-808.986" gradientTransform="matrix(0.9995 -3.280000e-02 3.280000e-02 0.9995 24.2283 41.6867)" gradientUnits="userSpaceOnUse"><stop offset="0" stop-color="#58258C"/><stop offset="1" stop-color="#151B4E"/></linearGradient><path d="M1343.6-811.7c0.2-0.1,0.4,0,0.4,0.2l0,0.4c0,0.3-0.2,0.6-0.4,0.7c-0.2,0.1-0.4,0-0.4-0.2l0-0.4 C1343.2-811.3,1343.4-811.6,1343.6-811.7z" class="st19"/></g><g><linearGradient id="SVGID_17_" x1="1347.638" x2="1348.484" y1="-809.822" y2="-809.822" gradientTransform="matrix(0.9995 -3.280000e-02 3.280000e-02 0.9995 24.2283 41.6867)" gradientUnits="userSpaceOnUse"><stop offset="0" stop-color="#58258C"/><stop offset="1" stop-color="#151B4E"/></linearGradient><path d="M1345-812.6c0.2-0.1,0.4,0,0.4,0.2l0,0.4c0,0.3-0.2,0.6-0.4,0.7c-0.2,0.1-0.4,0-0.4-0.2l0-0.4 C1344.6-812.2,1344.8-812.5,1345-812.6z" class="st20"/></g><g><linearGradient id="SVGID_18_" x1="1349.084" x2="1349.932" y1="-810.657" y2="-810.657" gradientTransform="matrix(0.9995 -3.280000e-02 3.280000e-02 0.9995 24.2283 41.6867)" gradientUnits="userSpaceOnUse"><stop offset="0" stop-color="#58258C"/><stop offset="1" stop-color="#151B4E"/></linearGradient><path d="M1346.4-813.5c0.2-0.1,0.4,0,0.4,0.2l0,0.4c0,0.3-0.2,0.6-0.4,0.7c-0.2,0.1-0.4,0-0.4-0.2l0-0.4 C1346-813,1346.2-813.4,1346.4-813.5z" class="st21"/></g><g><linearGradient id="SVGID_19_" x1="1350.533" x2="1351.379" y1="-811.493" y2="-811.493" gradientTransform="matrix(0.9995 -3.280000e-02 3.280000e-02 0.9995 24.2283 41.6867)" gradientUnits="userSpaceOnUse"><stop offset="0" stop-color="#58258C"/><stop offset="1" stop-color="#151B4E"/></linearGradient><path d="M1347.9-814.4c0.2-0.1,0.4,0,0.4,0.2l0,0.4c0,0.3-0.2,0.6-0.4,0.7c-0.2,0.1-0.4,0-0.4-0.2l0-0.4 C1347.5-813.9,1347.6-814.3,1347.9-814.4z" class="st22"/></g><g><linearGradient id="SVGID_20_" x1="1351.979" x2="1352.825" y1="-812.328" y2="-812.328" gradientTransform="matrix(0.9995 -3.280000e-02 3.280000e-02 0.9995 24.2283 41.6867)" gradientUnits="userSpaceOnUse"><stop offset="0" stop-color="#58258C"/><stop offset="1" stop-color="#151B4E"/></linearGradient><path d="M1349.3-815.3c0.2-0.1,0.4,0,0.4,0.2l0,0.4c0,0.3-0.2,0.6-0.4,0.7c-0.2,0.1-0.4,0-0.4-0.2l0-0.4 C1348.9-814.8,1349.1-815.1,1349.3-815.3z" class="st23"/></g></g><g><g><linearGradient id="SVGID_21_" x1="1359.628" x2="1360.475" y1="-819.811" y2="-819.811" gradientTransform="matrix(0.9999 -1.620000e-02 1.620000e-02 0.9999 11.7484 21.0971)" gradientUnits="userSpaceOnUse"><stop offset="0" stop-color="#58258C"/><stop offset="1" stop-color="#151B4E"/></linearGradient><path d="M1358.4-821.3c0.2-0.1,0.4,0,0.4,0.2l0,0.4c0,0.3-0.2,0.6-0.4,0.7c-0.2,0.1-0.4,0-0.4-0.2l0-0.4 C1358-820.9,1358.1-821.2,1358.4-821.3z" class="st24"/></g><g><linearGradient id="SVGID_22_" x1="1361.075" x2="1361.922" y1="-820.647" y2="-820.647" gradientTransform="matrix(0.9999 -1.620000e-02 1.620000e-02 0.9999 11.7484 21.0971)" gradientUnits="userSpaceOnUse"><stop offset="0" stop-color="#58258C"/><stop offset="1" stop-color="#151B4E"/></linearGradient><path d="M1359.8-822.2c0.2-0.1,0.4,0,0.4,0.2l0,0.4c0,0.3-0.2,0.6-0.4,0.7c-0.2,0.1-0.4,0-0.4-0.2l0-0.4 C1359.4-821.7,1359.6-822.1,1359.8-822.2z" class="st25"/></g><g><linearGradient id="SVGID_23_" x1="1362.523" x2="1363.369" y1="-821.482" y2="-821.482" gradientTransform="matrix(0.9999 -1.620000e-02 1.620000e-02 0.9999 11.7484 21.0971)" gradientUnits="userSpaceOnUse"><stop offset="0" stop-color="#58258C"/><stop offset="1" stop-color="#151B4E"/></linearGradient><path d="M1361.2-823.1c0.2-0.1,0.4,0,0.4,0.2l0,0.4c0,0.3-0.2,0.6-0.4,0.7c-0.2,0.1-0.4,0-0.4-0.2l0-0.4 C1360.8-822.6,1361-822.9,1361.2-823.1z" class="st26"/></g><g><linearGradient id="SVGID_24_" x1="1363.969" x2="1364.816" y1="-822.318" y2="-822.318" gradientTransform="matrix(0.9999 -1.620000e-02 1.620000e-02 0.9999 11.7484 21.0971)" gradientUnits="userSpaceOnUse"><stop offset="0" stop-color="#58258C"/><stop offset="1" stop-color="#151B4E"/></linearGradient><path d="M1362.7-823.9c0.2-0.1,0.4,0,0.4,0.2l0,0.4c0,0.3-0.2,0.6-0.4,0.7c-0.2,0.1-0.4,0-0.4-0.2l0-0.4 C1362.3-823.5,1362.4-823.8,1362.7-823.9z" class="st27"/></g><g><linearGradient id="SVGID_25_" x1="1365.416" x2="1366.262" y1="-823.153" y2="-823.153" gradientTransform="matrix(0.9999 -1.620000e-02 1.620000e-02 0.9999 11.7484 21.0971)" gradientUnits="userSpaceOnUse"><stop offset="0" stop-color="#58258C"/><stop offset="1" stop-color="#151B4E"/></linearGradient><path d="M1364.1-824.8c0.2-0.1,0.4,0,0.4,0.2l0,0.4c0,0.3-0.2,0.6-0.4,0.7c-0.2,0.1-0.4,0-0.4-0.2l0-0.4 C1363.7-824.3,1363.9-824.6,1364.1-824.8z" class="st28"/></g><g><linearGradient id="SVGID_26_" x1="1366.863" x2="1367.709" y1="-823.988" y2="-823.988" gradientTransform="matrix(0.9999 -1.620000e-02 1.620000e-02 0.9999 11.7484 21.0971)" gradientUnits="userSpaceOnUse"><stop offset="0" stop-color="#58258C"/><stop offset="1" stop-color="#151B4E"/></linearGradient><path d="M1365.5-825.6c0.2-0.1,0.4,0,0.4,0.2l0,0.4c0,0.3-0.2,0.6-0.4,0.7c-0.2,0.1-0.4,0-0.4-0.2l0-0.4 C1365.1-825.2,1365.3-825.5,1365.5-825.6z" class="st29"/></g><g><linearGradient id="SVGID_27_" x1="1368.31" x2="1369.157" y1="-824.824" y2="-824.824" gradientTransform="matrix(0.9999 -1.620000e-02 1.620000e-02 0.9999 11.7484 21.0971)" gradientUnits="userSpaceOnUse"><stop offset="0" stop-color="#58258C"/><stop offset="1" stop-color="#151B4E"/></linearGradient><path d="M1367-826.5c0.2-0.1,0.4,0,0.4,0.2l0,0.4c0,0.3-0.2,0.6-0.4,0.7c-0.2,0.1-0.4,0-0.4-0.2l0-0.4 C1366.6-826,1366.7-826.4,1367-826.5z" class="st30"/></g><g><linearGradient id="SVGID_28_" x1="1369.758" x2="1370.604" y1="-825.66" y2="-825.66" gradientTransform="matrix(0.9999 -1.620000e-02 1.620000e-02 0.9999 11.7484 21.0971)" gradientUnits="userSpaceOnUse"><stop offset="0" stop-color="#58258C"/><stop offset="1" stop-color="#151B4E"/></linearGradient><path d="M1368.4-827.4c0.2-0.1,0.4,0,0.4,0.2l0,0.4c0,0.3-0.2,0.6-0.4,0.7c-0.2,0.1-0.4,0-0.4-0.2l0-0.4 C1368-826.9,1368.2-827.2,1368.4-827.4z" class="st31"/></g><g><linearGradient id="SVGID_29_" x1="1371.205" x2="1372.051" y1="-826.495" y2="-826.495" gradientTransform="matrix(0.9999 -1.620000e-02 1.620000e-02 0.9999 11.7484 21.0971)" gradientUnits="userSpaceOnUse"><stop offset="0" stop-color="#58258C"/><stop offset="1" stop-color="#151B4E"/></linearGradient><path d="M1369.8-828.2c0.2-0.1,0.4,0,0.4,0.2l0,0.4c0,0.3-0.2,0.6-0.4,0.7c-0.2,0.1-0.4,0-0.4-0.2l0-0.4 C1369.4-827.8,1369.6-828.1,1369.8-828.2z" class="st32"/></g></g></g></g></g></g></g><path d="M1599.9,245.1c-51.9,13.2-100.7,34-147.9,59c-21,11.1-42.1,22.1-65.4,27.8c-32.1,7.9-63.8,6.6-95.1-3.8	c-18.5-6.2-35.3-15.8-51.8-26.1c-15-9.4-30.1-18.7-45.3-27.7c-22.3-13.2-46.7-19.8-72.3-22.1c-21.6-2-43.2-2.8-64.9-1	c-20.3,1.7-40.5,4.4-60.7,7.1c-39.2,5.2-78.3,11.1-117.8,12c-24.7,0.6-49.2-1-73.1-7.8c-29-8.2-50.6-26.5-68.1-50.5	c-12.2-16.7-23.3-34.3-36.1-50.5c-20.4-25.7-45.6-44.8-75.9-57.3c-28.2-11.6-57.5-17-87.8-18.5c-32.7-1.6-65.2,1.2-97.8,3.2	c-23,1.5-46,3-69.1,4.4c-24.7,1.6-49.5,2.1-74.2,2.6c-27.3,0.6-53.1-5.8-78.3-15.4c-36.7-13.9-72-31.3-108.4-45.9	C74.6,20.4,38.7,8.7,1.8,0.1C1.2-0.1,0.6,0,0.1,0c0,144,0,398-0.1,542c0,3,0.4,4,3.8,4c530.8-0.1,1061.6-0.1,1592.4,0	c3.3,0,3.8-0.8,3.8-3.9C1599.9,479.7,1599.9,307.4,1599.9,245.1z" class="st5"/></svg>