<svg xmlns="http://www.w3.org/2000/svg" width="47" height="43" viewBox="0 0 47 43"><g id="Vector_Smart_Object" data-name="Vector Smart Object" transform="translate(-21.272 -24.307)"><g id="Group_3" data-name="Group 3"><path id="Path_5141" fill="#fff" d="M56.928,37.212v17.13a3.993,3.993,0,0,1-3.992,3.992L39.1,58.393,31,67.307V58.393H25.265a3.994,3.994,0,0,1-3.992-4V37.272a4,4,0,0,1,3.992-4l27.671-.055a3.992,3.992,0,0,1,3.992,3.991Zm0,0" data-name="Path 5141"/><path id="Path_5142" fill="#141414" d="M39.1,42.134H28.565a.811.811,0,1,1,0-1.622H39.1a.811.811,0,0,1,0,1.622Zm0,0" data-name="Path 5142"/><path id="Path_5143" fill="#141414" d="M49.636,46.991H28.565a.809.809,0,1,1,0-1.617H49.636a.809.809,0,1,1,0,1.617Zm0,0" data-name="Path 5143"/><path id="Path_5144" fill="#141414" d="M49.636,51.854H28.565a.809.809,0,1,1,0-1.617H49.636a.809.809,0,1,1,0,1.617Zm0,0" data-name="Path 5144"/><path id="Path_5145" fill="#fff" d="M64.28,24.363l-27.666-.056a4,4,0,0,0-4,3.991V33.26l20.319-.04a3.992,3.992,0,0,1,3.992,3.991V52.155L62.6,58.393V49.48H64.28a3.992,3.992,0,0,0,3.992-3.991V28.358a3.993,3.993,0,0,0-3.992-4Zm0,0" data-name="Path 5145" opacity=".5"/></g></g></svg>