<svg xmlns="http://www.w3.org/2000/svg" xmlns:xlink="http://www.w3.org/1999/xlink" width="423" height="354" viewBox="0 0 423 354"><defs><linearGradient id="linear-gradient" x1=".5" x2=".5" y2="1" gradientUnits="objectBoundingBox"><stop offset="0" stop-color="#f5f5fc"/><stop offset="1" stop-color="#deddf5"/></linearGradient></defs><g id="Group_3573" data-name="Group 3573" transform="translate(-1386 -3573)"><rect id="Rectangle_335" width="9" height="9" fill="url(#linear-gradient)" data-name="Rectangle 335" transform="translate(1524 3573)"/><rect id="Rectangle_336" width="9" height="9" fill="url(#linear-gradient)" data-name="Rectangle 336" transform="translate(1593 3573)"/><rect id="Rectangle_337" width="9" height="9" fill="url(#linear-gradient)" data-name="Rectangle 337" transform="translate(1662 3573)"/><rect id="Rectangle_338" width="9" height="9" fill="url(#linear-gradient)" data-name="Rectangle 338" transform="translate(1731 3573)"/><rect id="Rectangle_339" width="9" height="9" fill="url(#linear-gradient)" data-name="Rectangle 339" transform="translate(1800 3573)"/><rect id="Rectangle_340" width="9" height="9" fill="url(#linear-gradient)" data-name="Rectangle 340" transform="translate(1524 3642)"/><rect id="Rectangle_341" width="9" height="9" fill="url(#linear-gradient)" data-name="Rectangle 341" transform="translate(1593 3642)"/><rect id="Rectangle_342" width="9" height="9" fill="url(#linear-gradient)" data-name="Rectangle 342" transform="translate(1662 3642)"/><rect id="Rectangle_343" width="9" height="9" fill="url(#linear-gradient)" data-name="Rectangle 343" transform="translate(1731 3642)"/><rect id="Rectangle_344" width="9" height="9" fill="url(#linear-gradient)" data-name="Rectangle 344" transform="translate(1800 3642)"/><rect id="Rectangle_345" width="9" height="9" fill="url(#linear-gradient)" data-name="Rectangle 345" transform="translate(1524 3711)"/><rect id="Rectangle_346" width="9" height="9" fill="url(#linear-gradient)" data-name="Rectangle 346" transform="translate(1593 3711)"/><rect id="Rectangle_347" width="9" height="9" fill="url(#linear-gradient)" data-name="Rectangle 347" transform="translate(1662 3711)"/><rect id="Rectangle_348" width="9" height="9" fill="url(#linear-gradient)" data-name="Rectangle 348" transform="translate(1731 3711)"/><rect id="Rectangle_349" width="9" height="9" fill="url(#linear-gradient)" data-name="Rectangle 349" transform="translate(1800 3711)"/><rect id="Rectangle_350" width="9" height="9" fill="url(#linear-gradient)" data-name="Rectangle 350" transform="translate(1524 3780)"/><rect id="Rectangle_351" width="9" height="9" fill="url(#linear-gradient)" data-name="Rectangle 351" transform="translate(1593 3780)"/><rect id="Rectangle_352" width="9" height="9" fill="url(#linear-gradient)" data-name="Rectangle 352" transform="translate(1662 3780)"/><rect id="Rectangle_353" width="9" height="9" fill="url(#linear-gradient)" data-name="Rectangle 353" transform="translate(1731 3780)"/><rect id="Rectangle_354" width="9" height="9" fill="url(#linear-gradient)" data-name="Rectangle 354" transform="translate(1800 3780)"/><rect id="Rectangle_355" width="9" height="9" fill="url(#linear-gradient)" data-name="Rectangle 355" transform="translate(1455 3573)"/><rect id="Rectangle_356" width="9" height="9" fill="url(#linear-gradient)" data-name="Rectangle 356" transform="translate(1455 3642)"/><rect id="Rectangle_357" width="9" height="9" fill="url(#linear-gradient)" data-name="Rectangle 357" transform="translate(1455 3711)"/><rect id="Rectangle_358" width="9" height="9" fill="url(#linear-gradient)" data-name="Rectangle 358" transform="translate(1455 3780)"/><rect id="Rectangle_359" width="9" height="9" fill="url(#linear-gradient)" data-name="Rectangle 359" transform="translate(1524 3849)"/><rect id="Rectangle_360" width="9" height="9" fill="url(#linear-gradient)" data-name="Rectangle 360" transform="translate(1593 3849)"/><rect id="Rectangle_361" width="9" height="9" fill="url(#linear-gradient)" data-name="Rectangle 361" transform="translate(1662 3849)"/><rect id="Rectangle_362" width="9" height="9" fill="url(#linear-gradient)" data-name="Rectangle 362" transform="translate(1731 3849)"/><rect id="Rectangle_363" width="9" height="9" fill="url(#linear-gradient)" data-name="Rectangle 363" transform="translate(1800 3849)"/><rect id="Rectangle_364" width="9" height="9" fill="url(#linear-gradient)" data-name="Rectangle 364" transform="translate(1455 3849)"/><rect id="Rectangle_365" width="9" height="9" fill="url(#linear-gradient)" data-name="Rectangle 365" transform="translate(1386 3642)"/><rect id="Rectangle_366" width="9" height="9" fill="url(#linear-gradient)" data-name="Rectangle 366" transform="translate(1386 3711)"/><rect id="Rectangle_367" width="9" height="9" fill="url(#linear-gradient)" data-name="Rectangle 367" transform="translate(1386 3780)"/><rect id="Rectangle_368" width="9" height="9" fill="url(#linear-gradient)" data-name="Rectangle 368" transform="translate(1662 3918)"/><rect id="Rectangle_369" width="9" height="9" fill="url(#linear-gradient)" data-name="Rectangle 369" transform="translate(1731 3918)"/><rect id="Rectangle_370" width="9" height="9" fill="url(#linear-gradient)" data-name="Rectangle 370" transform="translate(1593 3918)"/></g></svg>